<svg xmlns="http://www.w3.org/2000/svg" viewBox="0 0 1890 660">
  <!-- GOL wordmark — pixel-traced from the approved v3 sheet for 1:1 fidelity -->
  <path d="M 319.500 173 C 308.743 174.888, 289.136 179.782, 287.500 180.987 C 286.950 181.393, 285.150 182.047, 283.500 182.442 C 279.247 183.459, 263.470 191.156, 254.285 196.695 C 226.190 213.636, 205.195 235.717, 190.233 264.058 C 187.491 269.251, 184.366 275.075, 183.288 277 C 182.211 278.925, 178.933 285, 176.006 290.500 C 173.078 296, 168.729 304.042, 166.341 308.372 C 163.954 312.701, 162 316.390, 162 316.568 C 162 316.747, 160.495 319.504, 158.656 322.696 C 156.816 325.888, 152.595 333.675, 149.276 340 C 137.960 361.559, 133.716 369.499, 132.973 370.500 C 132.564 371.050, 130.219 375.333, 127.761 380.017 C 121.635 391.690, 115.859 402.297, 114.973 403.500 C 114.568 404.050, 112.910 406.975, 111.289 410 C 109.668 413.025, 105.791 420.076, 102.673 425.670 C 92.757 443.458, 87.054 461.445, 87.016 475.051 C 86.995 482.248, 90.057 495.964, 93.305 503.222 C 102.491 523.752, 122.918 538.766, 149 544.157 C 154.276 545.247, 184.315 545.500, 308.500 545.500 C 449.420 545.500, 462.092 545.365, 469 543.786 C 490.768 538.810, 507.229 530.284, 522.052 516.309 C 528.625 510.111, 530.026 507.879, 544.523 480.500 C 546.561 476.650, 549.472 471.250, 550.991 468.500 C 552.510 465.750, 555.546 460.125, 557.738 456 C 559.931 451.875, 562.856 446.475, 564.240 444 C 568.837 435.775, 577.269 420.555, 579.474 416.500 C 580.671 414.300, 584.046 408.225, 586.974 403 C 589.903 397.775, 593.274 391.700, 594.466 389.500 C 600.162 378.984, 604.534 371.186, 606.519 368 C 611.157 360.556, 626 332.368, 626 331.005 C 626 330.326, 582.216 330.076, 492.937 330.246 L 359.874 330.500 358.206 333.500 C 357.288 335.150, 355.111 338.975, 353.369 342 C 348.396 350.632, 345.844 355.401, 328.485 388.500 C 325.312 394.550, 322.295 400.038, 321.781 400.695 C 321.267 401.352, 320.994 402.884, 321.173 404.100 L 321.500 406.309 400.661 406.106 C 456.490 405.964, 480.019 406.222, 480.490 406.984 C 481.124 408.009, 478.860 412.856, 469.742 430 C 461.239 445.986, 457.518 452.720, 453.995 458.500 L 450.338 464.500 429.919 465.121 C 418.688 465.462, 364.646 465.625, 309.825 465.483 L 210.149 465.225 205.356 462.862 C 198.452 459.460, 195.710 454.987, 196.242 448 C 196.649 442.647, 199.584 436.420, 213.212 412 C 214.593 409.525, 217.198 404.800, 219.001 401.500 C 225.607 389.406, 227.860 385.307, 233.020 376 C 235.916 370.775, 239.848 363.575, 241.758 360 C 243.667 356.425, 246.470 351.250, 247.988 348.500 C 249.505 345.750, 252.667 339.900, 255.013 335.500 C 257.360 331.100, 259.609 327.050, 260.011 326.500 C 260.412 325.950, 265.131 316.950, 270.497 306.500 C 281.431 285.205, 284.288 280.878, 292.661 272.934 C 302.028 264.048, 308.830 259.997, 323.045 254.841 L 329.500 252.500 494.917 252 L 660.334 251.500 665.778 241 C 676.638 220.055, 682.244 209.480, 683.007 208.500 C 684.910 206.056, 701 173.881, 701 172.519 C 701 170.018, 333.853 170.481, 319.500 173 M 902 171.536 C 901.175 171.703, 896.900 172.351, 892.500 172.975 C 881.709 174.505, 860.115 180.306, 851.500 183.989 C 806.578 203.192, 776.166 230.457, 755.002 270.500 C 744.891 289.630, 742.449 294.098, 735.045 307 C 732.993 310.575, 728.534 318.812, 725.135 325.305 C 721.736 331.798, 717.887 338.803, 716.581 340.871 C 711.681 348.634, 703.016 367.883, 699.642 378.500 C 691.065 405.490, 690.815 439.757, 699.039 461 C 700.210 464.025, 701.427 467.360, 701.743 468.411 C 703.786 475.209, 714.855 494.421, 717.221 495.277 C 717.925 495.531, 719.217 495.117, 720.093 494.357 C 720.969 493.596, 727.719 488.743, 735.093 483.571 C 759.242 466.634, 764.917 462.607, 776.782 453.991 C 783.227 449.311, 790.184 444.361, 792.243 442.991 C 796.280 440.305, 796.806 438.595, 794.575 435.410 C 791.109 430.463, 789 421.651, 789 412.123 C 789 398.730, 792.926 386.282, 802.760 368.500 C 808.269 358.537, 810.974 353.487, 820.968 334.500 C 823.863 329, 826.565 324.050, 826.972 323.500 C 827.378 322.950, 830.772 316.650, 834.514 309.500 C 843.626 292.086, 844.915 290.148, 853.179 281.449 C 865.937 268.017, 882.245 258.624, 901 253.903 C 908.056 252.127, 913.508 252.015, 993.117 252.008 L 1077.733 252 1095.117 241.821 C 1104.678 236.222, 1122.299 225.759, 1134.275 218.571 C 1146.251 211.382, 1157.051 204.916, 1158.275 204.202 C 1159.499 203.488, 1161.706 202.138, 1163.179 201.202 C 1164.653 200.266, 1169.040 197.536, 1172.929 195.135 C 1180.569 190.419, 1181.538 188.565, 1177.250 186.871 C 1175.737 186.274, 1173.697 185.370, 1172.716 184.863 C 1170.522 183.729, 1151.670 177.810, 1143.500 175.690 C 1125.500 171.019, 1124.754 170.993, 1010.942 171.116 C 951.849 171.180, 902.825 171.369, 902 171.536 M 1413.227 172.250 C 1411.991 173.767, 1408.853 179.413, 1402.248 192 C 1399.506 197.225, 1394.666 206.450, 1391.493 212.500 C 1388.320 218.550, 1384.268 225.975, 1382.489 229 C 1380.710 232.025, 1376.554 239.675, 1373.254 246 C 1369.953 252.325, 1366.131 259.525, 1364.759 262 C 1360.655 269.407, 1355.057 279.868, 1349.241 291 C 1343.842 301.334, 1340.466 307.646, 1333.998 319.500 C 1332.197 322.800, 1328.031 330.675, 1324.740 337 C 1321.448 343.325, 1318.417 348.950, 1318.004 349.500 C 1317.132 350.661, 1311.824 360.459, 1304.731 374 C 1293.041 396.317, 1289.138 403.702, 1287.290 407 C 1286.211 408.925, 1282.941 415, 1280.023 420.500 C 1272.646 434.402, 1268.834 441.444, 1264.592 449 C 1262.585 452.575, 1258.650 460, 1255.848 465.500 C 1253.045 471, 1248.950 478.875, 1246.747 483 C 1237.065 501.128, 1227.602 519.030, 1219.787 534 C 1218.208 537.025, 1216.414 540.226, 1215.799 541.114 C 1215.185 542.002, 1214.964 543.464, 1215.309 544.364 C 1215.888 545.872, 1234.253 546, 1450.402 546 L 1684.868 546 1691.061 541.029 C 1696.520 536.648, 1723.465 513.305, 1727.122 509.788 C 1728.747 508.226, 1749.306 490.146, 1756.500 483.953 C 1764.013 477.486, 1772 469.669, 1772 468.784 C 1772 468.353, 1678.202 468, 1563.559 468 C 1446.268 468, 1354.883 467.619, 1354.580 467.129 C 1354.127 466.397, 1364.616 445.588, 1366.993 442.500 C 1367.972 441.229, 1372.359 433.083, 1381.265 416 C 1385.135 408.575, 1389.809 399.888, 1391.651 396.696 C 1393.493 393.504, 1395 390.693, 1395 390.449 C 1395 390.062, 1400.139 380.652, 1406.810 368.823 C 1407.951 366.800, 1411.681 359.825, 1415.100 353.323 C 1418.518 346.820, 1427.830 329.575, 1435.792 315 C 1443.754 300.425, 1452.755 283.775, 1455.792 278 C 1458.830 272.225, 1463.269 263.958, 1465.658 259.628 C 1468.046 255.299, 1470 251.610, 1470 251.432 C 1470 251.253, 1471.508 248.496, 1473.351 245.304 C 1475.194 242.112, 1478.868 235.450, 1481.514 230.500 C 1484.161 225.550, 1487.078 220.150, 1487.996 218.500 C 1504.841 188.233, 1512.172 173.890, 1511.582 172.354 C 1510.847 170.437, 1414.786 170.335, 1413.227 172.250 M 1195.500 245.594 C 1183.950 253.510, 1173.825 260.327, 1173 260.743 C 1171.646 261.426, 1152.196 274.149, 1139.500 282.657 C 1130.280 288.835, 1130.952 287.437, 1130.617 301.140 C 1130.170 319.423, 1127.676 327.243, 1116.022 346.894 C 1109.907 357.204, 1106.711 362.911, 1100.003 375.500 C 1097.659 379.900, 1094.062 386.425, 1092.011 390 C 1089.960 393.575, 1085.467 401.900, 1082.026 408.500 C 1072.911 425.984, 1065.721 434.553, 1051 445.479 C 1038.022 455.112, 1030.472 458.866, 1015.500 463.133 C 1008.892 465.016, 1004.647 465.154, 939.647 465.592 C 880.884 465.988, 870.405 466.275, 868.147 467.556 C 865.053 469.309, 863.065 470.530, 849 479.313 C 843.225 482.919, 835.660 487.587, 832.189 489.685 C 825.241 493.885, 808.323 504.451, 800.500 509.476 C 797.750 511.243, 791.450 515.288, 786.500 518.466 C 781.550 521.644, 775.700 525.479, 773.500 526.988 C 771.300 528.497, 768.487 530.047, 767.250 530.433 C 762.782 531.827, 764.547 534.687, 771.250 536.912 C 798.293 545.892, 799.492 545.972, 907.720 545.987 C 1007.881 546.001, 1008.201 545.988, 1032.500 541.031 C 1047.605 537.950, 1065.492 531.387, 1080 523.603 C 1098.624 513.610, 1105.908 508.637, 1123.500 493.902 C 1139.413 480.574, 1155.361 461.371, 1164.543 444.483 C 1165.146 443.374, 1167.459 439.324, 1169.683 435.483 C 1171.908 431.642, 1176.192 423.775, 1179.205 418 C 1185.875 405.215, 1192.034 393.850, 1193.024 392.500 C 1193.428 391.950, 1195.902 387.450, 1198.523 382.500 C 1201.145 377.550, 1204.872 370.575, 1206.807 367 C 1219.657 343.259, 1225.006 328.729, 1228.529 308 C 1230.482 296.508, 1230.069 269.345, 1227.776 258.500 C 1224.962 245.195, 1219.916 231.886, 1217.500 231.402 C 1216.950 231.292, 1207.050 237.679, 1195.500 245.594" fill="#FFFFFF"/>
</svg>