<svg xmlns="http://www.w3.org/2000/svg" viewBox="-12 -14 425.3121335934544 190">
  <g transform="skewX(-8) translate(26.702758593454377,0)">
    <path d="M34.45 151.25Q5 151.25 5 109.06L5 49.77Q5 11.25 38.75 11.25Q52.66 11.25 60.08 16.84Q67.50 22.42 70.31 33.13Q73.13 43.83 73.13 59.22L46.25 59.22L46.25 47.03Q46.25 42.58 45.04 39.57Q43.83 36.56 40 36.56Q35.23 36.56 33.71 39.77Q32.19 42.97 32.19 46.80L32.19 113.44Q32.19 118.98 33.63 122.46Q35.08 125.94 39.30 125.94Q43.67 125.94 45.12 122.46Q46.56 118.98 46.56 113.28L46.56 93.67L39.22 93.67L39.22 69.92L72.81 69.92L72.81 150L61.80 150L57.11 138.44Q49.92 151.25 34.45 151.25" fill="#0A0A0A"/>
    <path d="M116.48 151.25Q100 151.25 91.29 141.29Q82.58 131.33 82.58 112.50L82.58 47.19Q82.58 29.53 91.21 20.39Q99.84 11.25 116.48 11.25Q133.13 11.25 141.76 20.39Q150.39 29.53 150.39 47.19L150.39 112.50Q150.39 131.33 141.68 141.29Q132.97 151.25 116.48 151.25M116.72 125.94Q122.97 125.94 122.97 113.83L122.97 46.72Q122.97 36.56 116.88 36.56Q110 36.56 110 46.95L110 113.98Q110 120.39 111.56 123.16Q113.13 125.94 116.72 125.94M194.30 151.25Q177.81 151.25 169.10 141.29Q160.39 131.33 160.39 112.50L160.39 47.19Q160.39 29.53 169.02 20.39Q177.66 11.25 194.30 11.25Q210.94 11.25 219.57 20.39Q228.20 29.53 228.20 47.19L228.20 112.50Q228.20 131.33 219.49 141.29Q210.78 151.25 194.30 151.25M194.53 125.94Q200.78 125.94 200.78 113.83L200.78 46.72Q200.78 36.56 194.69 36.56Q187.81 36.56 187.81 46.95L187.81 113.98Q187.81 120.39 189.38 123.16Q190.94 125.94 194.53 125.94M272.11 151.25Q255.63 151.25 246.91 141.29Q238.20 131.33 238.20 112.50L238.20 47.19Q238.20 29.53 246.84 20.39Q255.47 11.25 272.11 11.25Q288.75 11.25 297.38 20.39Q306.02 29.53 306.02 47.19L306.02 112.50Q306.02 131.33 297.30 141.29Q288.59 151.25 272.11 151.25M272.34 125.94Q278.59 125.94 278.59 113.83L278.59 46.72Q278.59 36.56 272.50 36.56Q265.63 36.56 265.63 46.95L265.63 113.98Q265.63 120.39 267.19 123.16Q268.75 125.94 272.34 125.94" fill="#C1121F"/>
    <path d="M372.89 150L317.11 150L317.11 12.50L344.61 12.50L344.61 126.56L372.89 126.56" fill="#0A0A0A"/>
    
  </g>
</svg>