<svg xmlns="http://www.w3.org/2000/svg" viewBox="0 0 2568 402">
	<path d="M 2369.306 3 L 2368.174 6 2322.508 6 L 2276.842 6 2272.421 10.421 C 2268.872 13.970, 2268 15.535, 2268 18.353 C 2268 21.113, 2267.358 22.321, 2265 24 C 2262.166 26.018, 2262 26.515, 2262 33 C 2262 39.485, 2261.834 39.982, 2259 42 C 2256.553 43.743, 2256 44.848, 2256 48 C 2256 51.152, 2255.447 52.257, 2253 54 C 2250.553 55.743, 2250 56.848, 2250 60 C 2250 63.152, 2249.447 64.257, 2247 66 C 2244.553 67.743, 2244 68.848, 2244 72 C 2244 75.152, 2243.447 76.257, 2241 78 C 2238.553 79.743, 2238 80.848, 2238 84 C 2238 87.152, 2237.447 88.257, 2235 90 C 2232.553 91.743, 2232 92.848, 2232 96 C 2232 99.152, 2231.447 100.257, 2229 102 C 2226.166 104.018, 2226 104.515, 2226 111 C 2226 117.485, 2225.834 117.982, 2223 120 C 2220.553 121.743, 2220 122.848, 2220 126 C 2220 129.152, 2219.447 130.257, 2217 132 C 2214.553 133.743, 2214 134.848, 2214 138 C 2214 141.152, 2213.447 142.257, 2211 144 C 2208.166 146.018, 2208 146.515, 2208 153 C 2208 159.485, 2207.834 159.982, 2205 162 C 2202.553 163.743, 2202 164.848, 2202 168 C 2202 171.152, 2201.447 172.257, 2199 174 C 2196.553 175.743, 2196 176.848, 2196 180 C 2196 183.152, 2195.447 184.257, 2193 186 C 2190.553 187.743, 2190 188.848, 2190 192 C 2190 195.152, 2189.447 196.257, 2187 198 C 2184.553 199.743, 2184 200.848, 2184 204 C 2184 207.152, 2183.447 208.257, 2181 210 C 2178.553 211.743, 2178 212.848, 2178 216 C 2178 219.152, 2177.447 220.257, 2175 222 C 2172.166 224.018, 2172 224.515, 2172 231 C 2172 237.485, 2171.834 237.982, 2169 240 C 2166.553 241.743, 2166 242.848, 2166 246 C 2166 249.152, 2165.447 250.257, 2163 252 C 2160.553 253.743, 2160 254.848, 2160 258 C 2160 261.152, 2159.447 262.257, 2157 264 C 2154.553 265.743, 2154 266.848, 2154 270 C 2154 273.152, 2153.447 274.257, 2151 276 C 2148.166 278.018, 2148 278.515, 2148 285 C 2148 291.485, 2147.834 291.982, 2145 294 C 2142.553 295.743, 2142 296.848, 2142 300 C 2142 303.152, 2141.447 304.257, 2139 306 C 2136.553 307.743, 2136 308.848, 2136 312 C 2136 315.152, 2135.447 316.257, 2133 318 C 2130.553 319.743, 2130 320.848, 2130 324 C 2130 327.152, 2129.447 328.257, 2127 330 C 2124.553 331.743, 2124 332.848, 2124 336 C 2124 339.152, 2123.447 340.257, 2121 342 C 2118.553 343.743, 2118 344.848, 2118 348 C 2118 351.152, 2117.447 352.257, 2115 354 C 2112.166 356.018, 2112 356.515, 2112 363 C 2112 369.485, 2111.834 369.982, 2109 372 C 2106.553 373.743, 2106 374.848, 2106 378 C 2106 381.135, 2105.445 382.259, 2103.056 383.960 C 2100.748 385.603, 2100.046 386.946, 2099.806 390.176 C 2099.592 393.053, 2098.897 394.629, 2097.500 395.398 C 2094.938 396.810, 2094.034 398.068, 2094.015 400.250 C 2094.001 401.911, 2104.232 402, 2295 402 L 2496 402 2496 397.386 C 2496 392.892, 2496.234 392.543, 2505 384 C 2512.633 376.561, 2514 374.742, 2514 372.026 C 2514 369.259, 2515.627 367.221, 2526 357 C 2536.200 346.949, 2538 344.711, 2538 342.081 C 2538 339.447, 2539.993 336.983, 2551.416 325.494 C 2558.794 318.072, 2565.535 312, 2566.395 312 C 2567.754 312, 2567.998 314.719, 2568.251 332.750 C 2568.534 352.892, 2568.550 352.706, 2568.771 326.389 L 2569 299.277 2566.434 299.768 C 2565.023 300.038, 2562.914 301.550, 2561.746 303.129 L 2559.624 306 2405.835 306 L 2252.046 306 2250.509 303.654 C 2249.664 302.364, 2247.853 300.799, 2246.486 300.176 C 2243.040 298.605, 2243.285 295.421, 2247 293.500 C 2249.557 292.178, 2250 291.371, 2250 288.042 C 2250 284.844, 2250.543 283.749, 2253 282 C 2255.447 280.257, 2256 279.152, 2256 276 C 2256 272.848, 2256.553 271.743, 2259 270 C 2261.447 268.257, 2262 267.152, 2262 264 C 2262 260.848, 2262.553 259.743, 2265 258 C 2267.834 255.982, 2268 255.485, 2268 249 C 2268 242.515, 2268.166 242.018, 2271 240 C 2273.447 238.257, 2274 237.152, 2274 234 C 2274 230.848, 2274.553 229.743, 2277 228 C 2279.447 226.257, 2280 225.152, 2280 222 C 2280 218.848, 2280.553 217.743, 2283 216 C 2285.447 214.257, 2286 213.152, 2286 210 C 2286 206.848, 2286.553 205.743, 2289 204 C 2291.447 202.257, 2292 201.152, 2292 198 C 2292 194.848, 2292.553 193.743, 2295 192 C 2297.834 189.982, 2298 189.485, 2298 183 C 2298 176.515, 2298.166 176.018, 2301 174 C 2303.447 172.257, 2304 171.152, 2304 168 C 2304 164.848, 2304.553 163.743, 2307 162 C 2309.447 160.257, 2310 159.152, 2310 156 C 2310 152.848, 2310.553 151.743, 2313 150 C 2315.447 148.257, 2316 147.152, 2316 144 C 2316 140.848, 2316.553 139.743, 2319 138 C 2321.447 136.257, 2322 135.152, 2322 132 C 2322 128.848, 2322.553 127.743, 2325 126 C 2327.447 124.257, 2328 123.152, 2328 120 C 2328 116.848, 2328.553 115.743, 2331 114 C 2333.834 111.982, 2334 111.485, 2334 105 C 2334 98.515, 2334.166 98.018, 2337 96 C 2339.447 94.257, 2340 93.152, 2340 90 C 2340 86.848, 2340.553 85.743, 2343 84 C 2345.447 82.257, 2346 81.152, 2346 78 C 2346 74.848, 2346.553 73.743, 2349 72 C 2351.447 70.257, 2352 69.152, 2352 66 C 2352 62.848, 2352.553 61.743, 2355 60 C 2357.834 57.982, 2358 57.485, 2358 51 C 2358 44.515, 2358.166 44.018, 2361 42 C 2363.447 40.257, 2364 39.152, 2364 36 C 2364 32.848, 2364.553 31.743, 2367 30 C 2369.408 28.286, 2369.998 27.137, 2369.991 24.182 C 2369.984 21.339, 2370.650 19.930, 2372.913 18 C 2375.611 15.699, 2375.872 14.884, 2376.191 7.750 L 2376.539 0 2373.489 0 C 2371.018 0, 2370.223 0.570, 2369.306 3 M 210 9 C 207.982 11.834, 207.485 12, 201 12 C 194.515 12, 194.018 12.166, 192 15 C 190.257 17.447, 189.152 18, 186 18 C 182.848 18, 181.743 18.553, 180 21 C 178.257 23.447, 177.152 24, 174 24 C 170.848 24, 169.743 24.553, 168 27 C 166.314 29.368, 165.116 30, 162.318 30 C 159.169 30, 157.789 31.008, 150 39 C 142.621 46.571, 140.728 48, 138.079 48 C 133.402 48, 114 67.402, 114 72.079 C 114 74.728, 112.571 76.621, 105 84 C 97.008 91.789, 96 93.169, 96 96.318 C 96 99.116, 95.368 100.314, 93 102 C 90.553 103.743, 90 104.848, 90 108 C 90 111.152, 89.447 112.257, 87 114 C 84.553 115.743, 84 116.848, 84 120 C 84 123.152, 83.447 124.257, 81 126 C 78.166 128.018, 78 128.515, 78 135 C 78 141.485, 77.834 141.982, 75 144 C 72.553 145.743, 72 146.848, 72 150 C 72 153.152, 71.447 154.257, 69 156 C 66.553 157.743, 66 158.848, 66 162 C 66 165.152, 65.447 166.257, 63 168 C 60.553 169.743, 60 170.848, 60 174 C 60 177.152, 59.447 178.257, 57 180 C 54.553 181.743, 54 182.848, 54 186 C 54 189.152, 53.447 190.257, 51 192 C 48.166 194.018, 48 194.515, 48 201 C 48 207.485, 47.834 207.982, 45 210 C 42.553 211.743, 42 212.848, 42 216 C 42 219.152, 41.447 220.257, 39 222 C 36.553 223.743, 36 224.848, 36 228 C 36 231.152, 35.447 232.257, 33 234 C 30.553 235.743, 30 236.848, 30 240 C 30 243.152, 29.447 244.257, 27 246 C 24.553 247.743, 24 248.848, 24 252 C 24 255.152, 23.447 256.257, 21 258 C 18.166 260.018, 18 260.515, 18 267 C 18 273.485, 17.834 273.982, 15 276 C 12.553 277.743, 12 278.848, 12 282 C 12 285.152, 11.447 286.257, 9 288 C 6.443 289.821, 6 290.787, 6 294.549 C 6 298.422, 5.694 299.039, 3.500 299.589 L 1 300.217 1 327 L 1 353.783 3.500 354.411 C 5.694 354.961, 6 355.578, 6 359.451 C 6 363.213, 6.443 364.179, 9 366 C 11.349 367.673, 12 368.891, 12 371.616 C 12 376.786, 25.214 390, 30.384 390 C 33.109 390, 34.327 390.651, 36 393 C 37.826 395.565, 38.782 396, 42.593 396 C 46.745 396, 47.091 396.205, 47.650 399 L 48.250 402 231 402 L 413.750 402 414.306 399.250 C 414.626 397.670, 415.849 396.074, 417.181 395.500 C 418.994 394.718, 419.567 393.578, 419.806 390.278 C 420.049 386.934, 420.724 385.621, 423.056 383.960 C 425.825 381.988, 426 381.456, 426 375 C 426 368.515, 426.166 368.018, 429 366 C 431.447 364.257, 432 363.152, 432 360 C 432 356.848, 432.553 355.743, 435 354 C 437.447 352.257, 438 351.152, 438 348 C 438 344.848, 438.553 343.743, 441 342 C 443.447 340.257, 444 339.152, 444 336 C 444 332.848, 444.553 331.743, 447 330 C 449.447 328.257, 450 327.152, 450 324 C 450 320.848, 450.553 319.743, 453 318 C 455.834 315.982, 456 315.485, 456 309 C 456 302.515, 456.166 302.018, 459 300 C 461.447 298.257, 462 297.152, 462 294 C 462 290.848, 462.553 289.743, 465 288 C 467.447 286.257, 468 285.152, 468 282 C 468 278.848, 468.553 277.743, 471 276 C 473.447 274.257, 474 273.152, 474 270 C 474 266.848, 474.553 265.743, 477 264 C 479.834 261.982, 480 261.485, 480 255 C 480 248.515, 480.166 248.018, 483 246 C 485.447 244.257, 486 243.152, 486 240 C 486 236.848, 486.553 235.743, 489 234 C 491.447 232.257, 492 231.152, 492 228 C 492 224.848, 492.553 223.743, 495 222 C 497.981 219.877, 498 219.804, 498 210.132 C 498 203.896, 497.569 199.969, 496.800 199.200 C 496.119 198.519, 492.859 198, 489.265 198 L 482.930 198 472.465 187.535 C 463.362 178.432, 462 176.636, 462 173.735 C 462 171.901, 461.460 169.860, 460.800 169.200 C 459.058 167.458, 242.942 167.458, 241.200 169.200 C 240.540 169.860, 240 172.079, 240 174.132 C 240 177.137, 239.416 178.280, 237 180 C 234.553 181.743, 234 182.848, 234 186 C 234 189.152, 233.447 190.257, 231 192 C 228.553 193.743, 228 194.848, 228 198 C 228 201.152, 227.447 202.257, 225 204 C 222.553 205.743, 222 206.848, 222 210 C 222 213.152, 221.447 214.257, 219 216 C 216.166 218.018, 216 218.515, 216 225 C 216 231.485, 215.834 231.982, 213 234 C 210.553 235.743, 210 236.848, 210 240 C 210 243.115, 209.443 244.261, 207.122 245.913 C 204.598 247.710, 204.183 248.736, 203.759 254.232 C 203.493 257.679, 203.679 261.288, 204.173 262.250 C 205.578 264.989, 208.763 264.360, 210.500 261 L 212.051 258 239.958 258 L 267.864 258 270 261 L 272.136 264 315.042 264 L 357.949 264 359.500 261 C 361.237 257.640, 364.422 257.011, 365.827 259.750 C 366.321 260.712, 366.507 264.321, 366.241 267.768 C 365.817 273.264, 365.402 274.290, 362.878 276.087 C 360.214 277.984, 360 278.618, 360 284.616 L 360 291.097 352.548 298.548 L 345.097 306 236.616 306 L 128.136 306 126 303 C 124.280 300.584, 123.137 300, 120.132 300 C 114.911 300, 114 298.643, 114 290.868 C 114 284.530, 114.175 284.011, 117 282 C 119.834 279.982, 120 279.485, 120 273 C 120 266.515, 120.166 266.018, 123 264 C 125.447 262.257, 126 261.152, 126 258 C 126 254.848, 126.553 253.743, 129 252 C 131.447 250.257, 132 249.152, 132 246 C 132 242.848, 132.553 241.743, 135 240 C 137.447 238.257, 138 237.152, 138 234 C 138 230.848, 138.553 229.743, 141 228 C 143.447 226.257, 144 225.152, 144 222 C 144 218.848, 144.553 217.743, 147 216 C 149.447 214.257, 150 213.152, 150 210 C 150 206.848, 150.553 205.743, 153 204 C 155.834 201.982, 156 201.485, 156 195 C 156 188.515, 156.166 188.018, 159 186 C 161.447 184.257, 162 183.152, 162 180 C 162 176.848, 162.553 175.743, 165 174 C 167.447 172.257, 168 171.152, 168 168 C 168 164.848, 168.553 163.743, 171 162 C 173.447 160.257, 174 159.152, 174 156 C 174 152.848, 174.553 151.743, 177 150 C 179.447 148.257, 180 147.152, 180 144 C 180 140.848, 180.553 139.743, 183 138 C 185.349 136.327, 186 135.109, 186 132.384 C 186 127.214, 199.214 114, 204.384 114 C 207.109 114, 208.327 113.349, 210 111 C 211.743 108.553, 212.848 108, 216 108 C 219.152 108, 220.257 107.447, 222 105 L 224.136 102 380.647 102 L 537.158 102 541.579 97.579 C 545.128 94.030, 546 92.465, 546 89.647 C 546 86.887, 546.642 85.679, 549 84 C 551.447 82.257, 552 81.152, 552 78 C 552 74.848, 552.553 73.743, 555 72 C 557.834 69.982, 558 69.485, 558 63 C 558 56.515, 558.166 56.018, 561 54 C 563.447 52.257, 564 51.152, 564 48 C 564 44.848, 564.553 43.743, 567 42 C 569.447 40.257, 570 39.152, 570 36 C 570 32.848, 570.553 31.743, 573 30 C 575.396 28.294, 576.003 27.122, 576.015 24.182 C 576.032 20.079, 576.585 19.004, 579.500 17.399 C 582.255 15.882, 582.847 9.093, 580.382 7.290 C 578.957 6.248, 543.413 6, 395.377 6 L 212.136 6 210 9 M 750 9 C 747.982 11.834, 747.485 12, 741 12 C 734.515 12, 734.018 12.166, 732 15 C 730.257 17.447, 729.152 18, 726 18 C 722.848 18, 721.743 18.553, 720 21 C 718.257 23.447, 717.152 24, 714 24 C 710.848 24, 709.743 24.553, 708 27 C 706.305 29.381, 705.122 30, 702.269 30 C 699.172 30, 697.888 30.832, 693 36 C 688.376 40.890, 686.737 42, 684.141 42 C 679.342 42, 648 73.342, 648 78.141 C 648 80.737, 646.890 82.376, 642 87 C 637.007 91.722, 636 93.232, 636 96 C 636 98.768, 634.993 100.278, 630 105 L 624 110.674 624 117.269 C 624 123.455, 623.814 123.996, 621 126 C 618.553 127.743, 618 128.848, 618 132 C 618 135.152, 617.447 136.257, 615 138 C 612.553 139.743, 612 140.848, 612 144 C 612 147.152, 611.447 148.257, 609 150 C 606.553 151.743, 606 152.848, 606 156 C 606 159.152, 605.447 160.257, 603 162 C 600.553 163.743, 600 164.848, 600 168 C 600 171.152, 599.447 172.257, 597 174 C 594.553 175.743, 594 176.848, 594 180 C 594 183.152, 593.447 184.257, 591 186 C 588.166 188.018, 588 188.515, 588 195 C 588 201.485, 587.834 201.982, 585 204 C 582.553 205.743, 582 206.848, 582 210 C 582 213.152, 581.447 214.257, 579 216 C 576.553 217.743, 576 218.848, 576 222 C 576 225.152, 575.447 226.257, 573 228 C 570.166 230.018, 570 230.515, 570 237 C 570 243.485, 569.834 243.982, 567 246 C 564.553 247.743, 564 248.848, 564 252 C 564 255.152, 563.447 256.257, 561 258 C 558.553 259.743, 558 260.848, 558 264 C 558 267.152, 557.447 268.257, 555 270 C 552.553 271.743, 552 272.848, 552 276 C 552 279.152, 551.447 280.257, 549 282 C 546.166 284.018, 546 284.515, 546 291 C 546 297.485, 545.834 297.982, 543 300 L 540 302.136 540 323.868 C 540 347.847, 540.039 348, 546.132 348 C 549.137 348, 550.280 347.416, 552 345 C 553.743 342.553, 554.848 342, 558 342 C 561.152 342, 562.257 341.447, 564 339 C 565.695 336.619, 566.878 336, 569.731 336 C 572.828 336, 574.112 335.168, 579 330 C 583.888 324.832, 585.172 324, 588.269 324 C 591.122 324, 592.305 323.381, 594 321 C 595.695 318.619, 596.878 318, 599.731 318 C 602.828 318, 604.112 317.168, 609 312 C 613.888 306.832, 615.172 306, 618.269 306 C 621.122 306, 622.305 305.381, 624 303 C 625.695 300.619, 626.878 300, 629.731 300 C 632.828 300, 634.112 299.168, 639 294 C 643.810 288.914, 645.202 288, 648.137 288 C 652.574 288, 654 286.509, 654 281.868 C 654 278.863, 654.584 277.720, 657 276 C 659.447 274.257, 660 273.152, 660 270 C 660 266.848, 660.553 265.743, 663 264 C 665.834 261.982, 666 261.485, 666 255 C 666 248.515, 666.166 248.018, 669 246 C 671.447 244.257, 672 243.152, 672 240 C 672 236.848, 672.553 235.743, 675 234 C 677.447 232.257, 678 231.152, 678 228 C 678 224.848, 678.553 223.743, 681 222 C 683.834 219.982, 684 219.485, 684 213 C 684 206.515, 684.166 206.018, 687 204 C 689.447 202.257, 690 201.152, 690 198 C 690 194.848, 690.553 193.743, 693 192 C 695.447 190.257, 696 189.152, 696 186 C 696 182.848, 696.553 181.743, 699 180 C 701.447 178.257, 702 177.152, 702 174 C 702 170.848, 702.553 169.743, 705 168 C 707.447 166.257, 708 165.152, 708 162 C 708 158.848, 708.553 157.743, 711 156 C 713.803 154.004, 714 153.440, 714 147.410 L 714 140.955 730.478 124.478 L 746.955 108 753.410 108 C 759.440 108, 760.004 107.803, 762 105 L 764.136 102 863.731 102 L 963.326 102 969 96 C 973.888 90.832, 975.172 90, 978.269 90 C 981.122 90, 982.305 89.381, 984 87 C 985.695 84.619, 986.878 84, 989.731 84 C 992.828 84, 994.112 83.168, 999 78 C 1003.888 72.832, 1005.172 72, 1008.269 72 C 1011.122 72, 1012.305 71.381, 1014 69 C 1015.695 66.619, 1016.878 66, 1019.731 66 C 1022.828 66, 1024.112 65.168, 1029 60 C 1033.888 54.832, 1035.172 54, 1038.269 54 C 1041.122 54, 1042.305 53.381, 1044 51 C 1045.743 48.553, 1046.848 48, 1050 48 C 1053.152 48, 1054.257 47.447, 1056 45 C 1057.720 42.584, 1058.863 42, 1061.868 42 C 1067.031 42, 1068 40.617, 1068 33.252 L 1068 26.903 1060.548 19.452 C 1054.134 13.038, 1052.612 12, 1049.616 12 C 1046.891 12, 1045.673 11.349, 1044 9 L 1041.864 6 897 6 L 752.136 6 750 9 M 1284 9 C 1281.982 11.834, 1281.485 12, 1275 12 C 1268.515 12, 1268.018 12.166, 1266 15 C 1263.982 17.834, 1263.485 18, 1257 18 C 1250.515 18, 1250.018 18.166, 1248 21 C 1246.257 23.447, 1245.152 24, 1242 24 C 1238.848 24, 1237.743 24.553, 1236 27 C 1234.319 29.360, 1233.114 30, 1230.344 30 C 1227.170 30, 1225.662 31.179, 1215 42 C 1204.511 52.645, 1202.793 54, 1199.788 54 C 1195.507 54, 1194 55.507, 1194 59.788 C 1194 62.793, 1192.645 64.511, 1182 75 C 1171.553 85.295, 1170 87.245, 1170 90.075 C 1170 92.751, 1168.939 94.329, 1164 99 L 1158 104.674 1158 111.269 C 1158 117.455, 1157.814 117.996, 1155 120 C 1152.553 121.743, 1152 122.848, 1152 126 C 1152 129.152, 1151.447 130.257, 1149 132 C 1146.553 133.743, 1146 134.848, 1146 138 C 1146 141.152, 1145.447 142.257, 1143 144 C 1140.166 146.018, 1140 146.515, 1140 153 C 1140 159.485, 1139.834 159.982, 1137 162 C 1134.553 163.743, 1134 164.848, 1134 168 C 1134 171.152, 1133.447 172.257, 1131 174 C 1128.553 175.743, 1128 176.848, 1128 180 C 1128 183.152, 1127.447 184.257, 1125 186 C 1122.553 187.743, 1122 188.848, 1122 192 C 1122 195.152, 1121.447 196.257, 1119 198 C 1116.553 199.743, 1116 200.848, 1116 204 C 1116 207.152, 1115.447 208.257, 1113 210 C 1110.166 212.018, 1110 212.515, 1110 219 C 1110 225.485, 1109.834 225.982, 1107 228 C 1104.553 229.743, 1104 230.848, 1104 234 C 1104 237.152, 1103.447 238.257, 1101 240 C 1098.553 241.743, 1098 242.848, 1098 246 C 1098 249.152, 1097.447 250.257, 1095 252 C 1092.166 254.018, 1092 254.515, 1092 261 C 1092 267.485, 1091.834 267.982, 1089 270 C 1086.553 271.743, 1086 272.848, 1086 276 C 1086 279.152, 1085.447 280.257, 1083 282 C 1080.553 283.743, 1080 284.848, 1080 288 C 1080 291.152, 1079.447 292.257, 1077 294 C 1074.166 296.018, 1074 296.515, 1074 303 C 1074 309.485, 1073.834 309.982, 1071 312 L 1068 314.136 1068 329.868 C 1068 347.341, 1068.223 348, 1074.132 348 C 1077.137 348, 1078.280 347.416, 1080 345 C 1081.743 342.553, 1082.848 342, 1086 342 C 1089.152 342, 1090.257 341.447, 1092 339 C 1093.743 336.553, 1094.848 336, 1098 336 C 1101.152 336, 1102.257 335.447, 1104 333 C 1105.695 330.619, 1106.878 330, 1109.731 330 C 1112.828 330, 1114.112 329.168, 1119 324 C 1123.888 318.832, 1125.172 318, 1128.269 318 C 1131.122 318, 1132.305 317.381, 1134 315 C 1135.743 312.553, 1136.848 312, 1140 312 C 1143.152 312, 1144.257 311.447, 1146 309 C 1147.695 306.619, 1148.878 306, 1151.731 306 C 1154.828 306, 1156.112 305.168, 1161 300 C 1165.643 295.090, 1167.257 294, 1169.885 294 C 1174.793 294, 1188 280.597, 1188 275.616 C 1188 272.891, 1188.651 271.673, 1191 270 C 1193.447 268.257, 1194 267.152, 1194 264 C 1194 260.848, 1194.553 259.743, 1197 258 C 1199.447 256.257, 1200 255.152, 1200 252 C 1200 248.848, 1200.553 247.743, 1203 246 C 1205.834 243.982, 1206 243.485, 1206 237 C 1206 230.515, 1206.166 230.018, 1209 228 C 1211.447 226.257, 1212 225.152, 1212 222 C 1212 218.848, 1212.553 217.743, 1215 216 C 1217.447 214.257, 1218 213.152, 1218 210 C 1218 206.848, 1218.553 205.743, 1221 204 C 1223.447 202.257, 1224 201.152, 1224 198 C 1224 194.848, 1224.553 193.743, 1227 192 C 1229.447 190.257, 1230 189.152, 1230 186 C 1230 182.848, 1230.553 181.743, 1233 180 C 1235.834 177.982, 1236 177.485, 1236 171 C 1236 164.515, 1236.166 164.018, 1239 162 C 1241.447 160.257, 1242 159.152, 1242 156 C 1242 152.848, 1242.553 151.743, 1245 150 C 1247.447 148.257, 1248 147.152, 1248 144 C 1248 140.848, 1248.553 139.743, 1251 138 C 1253.358 136.321, 1254 135.113, 1254 132.353 C 1254 127.463, 1261.300 120, 1266.084 120 C 1268.749 120, 1270.335 118.933, 1275 114 L 1280.674 108 1287.269 108 C 1293.455 108, 1293.996 107.814, 1296 105 L 1298.136 102 1394.731 102 L 1491.326 102 1497 96 C 1501.888 90.832, 1503.172 90, 1506.269 90 C 1509.122 90, 1510.305 89.381, 1512 87 C 1513.743 84.553, 1514.848 84, 1518 84 C 1521.152 84, 1522.257 83.447, 1524 81 C 1525.695 78.619, 1526.878 78, 1529.731 78 C 1532.828 78, 1534.112 77.168, 1539 72 C 1543.888 66.832, 1545.172 66, 1548.269 66 C 1551.122 66, 1552.305 65.381, 1554 63 C 1555.695 60.619, 1556.878 60, 1559.731 60 C 1562.828 60, 1564.112 59.168, 1569 54 C 1573.888 48.832, 1575.172 48, 1578.269 48 C 1581.122 48, 1582.305 47.381, 1584 45 C 1585.679 42.642, 1586.887 42, 1589.647 42 C 1594.484 42, 1602 34.699, 1602 30 C 1602 25.301, 1594.484 18, 1589.647 18 C 1586.887 18, 1585.679 17.358, 1584 15 C 1582.257 12.553, 1581.152 12, 1578 12 C 1574.848 12, 1573.743 11.447, 1572 9 L 1569.864 6 1428 6 L 1286.136 6 1284 9 M 1812 9 C 1809.982 11.834, 1809.485 12, 1803 12 C 1796.515 12, 1796.018 12.166, 1794 15 C 1792.257 17.447, 1791.152 18, 1788 18 C 1784.848 18, 1783.743 18.553, 1782 21 C 1780.257 23.447, 1779.152 24, 1776 24 C 1772.848 24, 1771.743 24.553, 1770 27 C 1768.314 29.368, 1767.116 30, 1764.318 30 C 1761.169 30, 1759.789 31.008, 1752 39 C 1744.621 46.571, 1742.728 48, 1740.079 48 C 1735.402 48, 1716 67.402, 1716 72.079 C 1716 74.728, 1714.571 76.621, 1707 84 C 1699.008 91.789, 1698 93.169, 1698 96.318 C 1698 99.116, 1697.368 100.314, 1695 102 C 1692.553 103.743, 1692 104.848, 1692 108 C 1692 111.152, 1691.447 112.257, 1689 114 C 1686.553 115.743, 1686 116.848, 1686 120 C 1686 123.152, 1685.447 124.257, 1683 126 C 1680.166 128.018, 1680 128.515, 1680 135 C 1680 141.485, 1679.834 141.982, 1677 144 C 1674.553 145.743, 1674 146.848, 1674 150 C 1674 153.152, 1673.447 154.257, 1671 156 C 1668.553 157.743, 1668 158.848, 1668 162 C 1668 165.152, 1667.447 166.257, 1665 168 C 1662.553 169.743, 1662 170.848, 1662 174 C 1662 177.152, 1661.447 178.257, 1659 180 C 1656.553 181.743, 1656 182.848, 1656 186 C 1656 189.152, 1655.447 190.257, 1653 192 C 1650.553 193.743, 1650 194.848, 1650 198 C 1650 201.152, 1649.447 202.257, 1647 204 C 1644.166 206.018, 1644 206.515, 1644 213 C 1644 219.485, 1643.834 219.982, 1641 222 C 1638.553 223.743, 1638 224.848, 1638 228 C 1638 231.152, 1637.447 232.257, 1635 234 C 1632.553 235.743, 1632 236.848, 1632 240 C 1632 243.152, 1631.447 244.257, 1629 246 C 1626.553 247.743, 1626 248.848, 1626 252 C 1626 255.152, 1625.447 256.257, 1623 258 C 1620.166 260.018, 1620 260.515, 1620 267 C 1620 273.485, 1619.834 273.982, 1617 276 C 1614.553 277.743, 1614 278.848, 1614 282 C 1614 285.152, 1613.447 286.257, 1611 288 C 1608.177 290.010, 1608.001 290.531, 1608.009 296.818 C 1608.017 303.004, 1607.798 303.686, 1605.049 306 L 1602.081 308.500 1601.886 327.095 C 1601.779 337.323, 1602.012 346.210, 1602.404 346.845 C 1603.745 349.015, 1606.921 348.053, 1608.500 345 C 1609.822 342.443, 1610.629 342, 1613.958 342 C 1617.156 342, 1618.251 341.457, 1620 339 C 1621.743 336.553, 1622.848 336, 1626 336 C 1629.152 336, 1630.257 335.447, 1632 333 C 1633.695 330.619, 1634.878 330, 1637.731 330 C 1640.828 330, 1642.112 329.168, 1647 324 C 1651.888 318.832, 1653.172 318, 1656.269 318 C 1659.122 318, 1660.305 317.381, 1662 315 C 1663.695 312.619, 1664.878 312, 1667.731 312 C 1670.828 312, 1672.112 311.168, 1677 306 C 1681.888 300.832, 1683.172 300, 1686.269 300 C 1689.122 300, 1690.305 299.381, 1692 297 C 1693.743 294.553, 1694.848 294, 1698 294 C 1701.152 294, 1702.257 293.447, 1704 291 C 1705.720 288.584, 1706.863 288, 1709.868 288 C 1714.574 288, 1716 286.574, 1716 281.868 C 1716 278.863, 1716.584 277.720, 1719 276 C 1721.447 274.257, 1722 273.152, 1722 270 C 1722 266.848, 1722.553 265.743, 1725 264 C 1727.834 261.982, 1728 261.485, 1728 255 C 1728 248.515, 1728.166 248.018, 1731 246 C 1733.447 244.257, 1734 243.152, 1734 240 C 1734 236.848, 1734.553 235.743, 1737 234 C 1739.447 232.257, 1740 231.152, 1740 228 C 1740 224.848, 1740.553 223.743, 1743 222 C 1745.447 220.257, 1746 219.152, 1746 216 C 1746 212.848, 1746.553 211.743, 1749 210 C 1751.447 208.257, 1752 207.152, 1752 204 C 1752 200.848, 1752.553 199.743, 1755 198 C 1757.447 196.257, 1758 195.152, 1758 192 C 1758 188.848, 1758.553 187.743, 1761 186 C 1763.834 183.982, 1764 183.485, 1764 177 C 1764 170.515, 1764.166 170.018, 1767 168 C 1769.447 166.257, 1770 165.152, 1770 162 C 1770 158.848, 1770.553 157.743, 1773 156 C 1775.447 154.257, 1776 153.152, 1776 150 C 1776 146.848, 1776.553 145.743, 1779 144 C 1781.346 142.330, 1782 141.108, 1782 138.397 C 1782 135.329, 1783.203 133.727, 1792.465 124.465 C 1801.727 115.203, 1803.329 114, 1806.397 114 C 1809.108 114, 1810.330 113.346, 1812 111 C 1813.743 108.553, 1814.848 108, 1818 108 C 1821.152 108, 1822.257 107.447, 1824 105 L 1826.136 102 1925.731 102 L 2025.326 102 2031 96 C 2035.888 90.832, 2037.172 90, 2040.269 90 C 2043.122 90, 2044.305 89.381, 2046 87 C 2047.695 84.619, 2048.878 84, 2051.731 84 C 2054.828 84, 2056.112 83.168, 2061 78 C 2065.888 72.832, 2067.172 72, 2070.269 72 C 2073.122 72, 2074.305 71.381, 2076 69 C 2077.695 66.619, 2078.878 66, 2081.731 66 C 2084.828 66, 2086.112 65.168, 2091 60 C 2095.888 54.832, 2097.172 54, 2100.269 54 C 2103.122 54, 2104.305 53.381, 2106 51 C 2107.695 48.619, 2108.878 48, 2111.731 48 C 2114.823 48, 2116.111 47.170, 2120.935 42.069 C 2125.948 36.768, 2127.020 36.103, 2131.022 35.819 C 2136.339 35.440, 2137.931 32.104, 2133.839 29.914 C 2132.583 29.242, 2127.876 24.936, 2123.377 20.346 C 2116.183 13.004, 2114.774 12, 2111.667 12 C 2108.885 12, 2107.683 11.364, 2106 9 L 2103.864 6 1959 6 L 1814.136 6 1812 9 M 1071 66 C 1066.205 71.206, 1065.028 71.973, 1061.818 71.986 C 1058.877 71.997, 1057.706 72.604, 1056 75 C 1054.257 77.447, 1053.152 78, 1050 78 C 1046.848 78, 1045.743 78.553, 1044 81 C 1042.257 83.447, 1041.152 84, 1038 84 C 1034.848 84, 1033.743 84.553, 1032 87 C 1030.305 89.381, 1029.122 90, 1026.269 90 C 1023.172 90, 1021.888 90.832, 1017 96 C 1012.278 100.993, 1010.768 102, 1008 102 C 1005.232 102, 1003.722 103.007, 999 108 C 994.367 112.900, 992.740 114, 990.128 114 C 985.167 114, 966 133.380, 966 138.397 C 966 141.108, 965.346 142.330, 963 144 C 960.553 145.743, 960 146.848, 960 150 C 960 153.152, 959.447 154.257, 957 156 C 954.166 158.018, 954 158.515, 954 165 C 954 171.485, 953.834 171.982, 951 174 C 948.553 175.743, 948 176.848, 948 180 C 948 183.152, 947.447 184.257, 945 186 C 942.553 187.743, 942 188.848, 942 192 C 942 195.152, 941.447 196.257, 939 198 C 936.553 199.743, 936 200.848, 936 204 C 936 207.152, 935.447 208.257, 933 210 C 930.553 211.743, 930 212.848, 930 216 C 930 219.152, 929.447 220.257, 927 222 C 924.166 224.018, 924 224.515, 924 231 C 924 237.485, 923.834 237.982, 921 240 C 918.553 241.743, 918 242.848, 918 246 C 918 249.152, 917.447 250.257, 915 252 C 912.553 253.743, 912 254.848, 912 258 C 912 261.152, 911.447 262.257, 909 264 C 906.651 265.673, 906 266.891, 906 269.616 C 906 274.597, 892.793 288, 887.885 288 C 885.257 288, 883.643 289.090, 879 294 L 873.326 300 863.731 300 C 854.211 300, 854.119 300.024, 852 303 L 849.864 306 759 306 L 668.136 306 666 309 C 664.305 311.381, 663.122 312, 660.269 312 C 657.172 312, 655.888 312.832, 651 318 C 646.112 323.168, 644.828 324, 641.731 324 C 638.878 324, 637.695 324.619, 636 327 C 634.257 329.447, 633.152 330, 630 330 C 626.848 330, 625.743 330.553, 624 333 C 622.305 335.381, 621.122 336, 618.269 336 C 615.172 336, 613.888 336.832, 609 342 C 604.112 347.168, 602.828 348, 599.731 348 C 596.878 348, 595.695 348.619, 594 351 C 592.305 353.381, 591.122 354, 588.269 354 C 585.172 354, 583.888 354.832, 579 360 C 574.335 364.933, 572.749 366, 570.084 366 C 565.517 366, 558 373.464, 558 378 C 558 382.699, 565.516 390, 570.353 390 C 573.113 390, 574.321 390.642, 576 393 C 577.826 395.565, 578.782 396, 582.593 396 C 586.745 396, 587.091 396.205, 587.650 399 L 588.250 402 729 402 L 869.750 402 870.350 399 L 870.950 396 878.407 396 C 885.551 396, 885.953 395.874, 888 393 C 890.018 390.166, 890.515 390, 897 390 C 903.485 390, 903.982 389.834, 906 387 C 907.695 384.619, 908.878 384, 911.731 384 C 914.828 384, 916.112 383.168, 921 378 C 925.618 373.117, 927.265 372, 929.850 372 C 932.677 372, 936.156 368.870, 961.513 343.513 C 987.803 317.223, 990 314.760, 990 311.581 C 990 308.895, 990.661 307.666, 993 306 C 995.447 304.257, 996 303.152, 996 300 C 996 296.848, 996.553 295.743, 999 294 C 1001.447 292.257, 1002 291.152, 1002 288 C 1002 284.848, 1002.553 283.743, 1005 282 C 1007.447 280.257, 1008 279.152, 1008 276 C 1008 272.848, 1008.553 271.743, 1011 270 C 1013.447 268.257, 1014 267.152, 1014 264 C 1014 260.848, 1014.553 259.743, 1017 258 C 1019.834 255.982, 1020 255.485, 1020 249 C 1020 242.515, 1020.166 242.018, 1023 240 C 1025.447 238.257, 1026 237.152, 1026 234 C 1026 230.848, 1026.553 229.743, 1029 228 C 1031.447 226.257, 1032 225.152, 1032 222 C 1032 218.848, 1032.553 217.743, 1035 216 C 1037.447 214.257, 1038 213.152, 1038 210 C 1038 206.848, 1038.553 205.743, 1041 204 C 1043.447 202.257, 1044 201.152, 1044 198 C 1044 194.848, 1044.553 193.743, 1047 192 C 1049.447 190.257, 1050 189.152, 1050 186 C 1050 182.848, 1050.553 181.743, 1053 180 C 1055.447 178.257, 1056 177.152, 1056 174 C 1056 170.848, 1056.553 169.743, 1059 168 C 1061.834 165.982, 1062 165.485, 1062 159 C 1062 152.515, 1062.166 152.018, 1065 150 C 1067.447 148.257, 1068 147.152, 1068 144 C 1068 140.848, 1068.553 139.743, 1071 138 C 1073.447 136.257, 1074 135.152, 1074 132 C 1074 128.848, 1074.553 127.743, 1077 126 C 1079.834 123.982, 1080 123.485, 1080 117 C 1080 110.515, 1080.166 110.018, 1083 108 L 1086 105.864 1086 84.132 C 1086 60.251, 1085.936 59.991, 1080.050 60.014 C 1077.001 60.026, 1075.723 60.872, 1071 66 M 1607.500 63 C 1606.178 65.557, 1605.371 66, 1602.042 66 C 1598.844 66, 1597.749 66.543, 1596 69 C 1594.305 71.381, 1593.122 72, 1590.269 72 C 1587.172 72, 1585.888 72.832, 1581 78 C 1576.112 83.168, 1574.828 84, 1571.731 84 C 1568.878 84, 1567.695 84.619, 1566 87 C 1564.305 89.381, 1563.122 90, 1560.269 90 C 1557.172 90, 1555.888 90.832, 1551 96 C 1546.112 101.168, 1544.828 102, 1541.731 102 C 1538.878 102, 1537.695 102.619, 1536 105 C 1534.305 107.381, 1533.122 108, 1530.269 108 C 1527.172 108, 1525.888 108.832, 1521 114 C 1516.357 118.910, 1514.743 120, 1512.115 120 C 1509.453 120, 1507.627 121.277, 1501.452 127.452 L 1494 134.903 1494 141.384 C 1494 147.442, 1493.805 148.003, 1491 150 C 1488.553 151.743, 1488 152.848, 1488 156 C 1488 159.152, 1487.447 160.257, 1485 162 C 1482.553 163.743, 1482 164.848, 1482 168 C 1482 171.152, 1481.447 172.257, 1479 174 C 1476.553 175.743, 1476 176.848, 1476 180 C 1476 183.152, 1475.447 184.257, 1473 186 C 1470.166 188.018, 1470 188.515, 1470 195 C 1470 201.485, 1469.834 201.982, 1467 204 C 1464.553 205.743, 1464 206.848, 1464 210 C 1464 213.152, 1463.447 214.257, 1461 216 C 1458.553 217.743, 1458 218.848, 1458 222 C 1458 225.152, 1457.447 226.257, 1455 228 C 1452.553 229.743, 1452 230.848, 1452 234 C 1452 237.152, 1451.447 238.257, 1449 240 C 1446.186 242.004, 1446 242.545, 1446 248.731 L 1446 255.326 1440 261 C 1435.100 265.633, 1434 267.260, 1434 269.872 C 1434 274.833, 1414.620 294, 1409.603 294 C 1406.892 294, 1405.670 294.654, 1404 297 C 1401.982 299.834, 1401.485 300, 1395 300 C 1388.515 300, 1388.018 300.166, 1386 303 L 1383.864 306 1314 306 L 1244.136 306 1242 303 C 1239.980 300.162, 1239.490 300, 1232.958 300 C 1226.295 300, 1225.997 300.106, 1224.500 303 C 1223.581 304.776, 1222.154 306, 1221 306 C 1219.846 306, 1218.419 304.776, 1217.500 303 C 1216.178 300.443, 1215.371 300, 1212.042 300 C 1208.844 300, 1207.749 300.543, 1206 303 C 1204.305 305.381, 1203.122 306, 1200.269 306 C 1197.172 306, 1195.888 306.832, 1191 312 C 1186.112 317.168, 1184.828 318, 1181.731 318 C 1178.878 318, 1177.695 318.619, 1176 321 C 1174.257 323.447, 1173.152 324, 1170 324 C 1166.848 324, 1165.743 324.553, 1164 327 C 1162.305 329.381, 1161.122 330, 1158.269 330 C 1155.172 330, 1153.888 330.832, 1149 336 C 1144.112 341.168, 1142.828 342, 1139.731 342 C 1136.878 342, 1135.695 342.619, 1134 345 C 1132.257 347.447, 1131.152 348, 1128 348 C 1124.848 348, 1123.743 348.553, 1122 351 C 1120.305 353.381, 1119.122 354, 1116.269 354 C 1113.172 354, 1111.888 354.832, 1107 360 C 1102.087 365.195, 1100.838 366, 1097.686 366 C 1094.971 366, 1093.656 366.596, 1092.509 368.346 C 1091.664 369.636, 1089.853 371.201, 1088.486 371.824 C 1085.380 373.240, 1085.242 376.524, 1088.222 378.119 C 1089.444 378.773, 1094.124 383.064, 1098.623 387.654 C 1106.257 395.444, 1107.076 396, 1110.926 396 C 1114.708 396, 1115.100 396.249, 1115.650 399 L 1116.250 402 1260 402 L 1403.750 402 1404.350 399 L 1404.950 396 1412.407 396 C 1419.551 396, 1419.953 395.874, 1422 393 C 1423.743 390.553, 1424.848 390, 1428 390 C 1431.152 390, 1432.257 389.447, 1434 387 C 1435.743 384.553, 1436.848 384, 1440 384 C 1443.152 384, 1444.257 383.447, 1446 381 C 1447.695 378.619, 1448.878 378, 1451.731 378 C 1454.828 378, 1456.112 377.168, 1461 372 C 1465.624 367.110, 1467.263 366, 1469.859 366 C 1474.619 366, 1506 334.661, 1506 329.908 C 1506 327.275, 1507.444 325.364, 1515 318 C 1522.992 310.211, 1524 308.831, 1524 305.682 C 1524 302.884, 1524.632 301.686, 1527 300 C 1529.447 298.257, 1530 297.152, 1530 294 C 1530 290.848, 1530.553 289.743, 1533 288 C 1535.447 286.257, 1536 285.152, 1536 282 C 1536 278.848, 1536.553 277.743, 1539 276 C 1541.834 273.982, 1542 273.485, 1542 267 C 1542 260.515, 1542.166 260.018, 1545 258 C 1547.447 256.257, 1548 255.152, 1548 252 C 1548 248.848, 1548.553 247.743, 1551 246 C 1553.447 244.257, 1554 243.152, 1554 240 C 1554 236.848, 1554.553 235.743, 1557 234 C 1559.447 232.257, 1560 231.152, 1560 228 C 1560 224.848, 1560.553 223.743, 1563 222 C 1565.447 220.257, 1566 219.152, 1566 216 C 1566 212.848, 1566.553 211.743, 1569 210 C 1571.447 208.257, 1572 207.152, 1572 204 C 1572 200.848, 1572.553 199.743, 1575 198 C 1577.834 195.982, 1578 195.485, 1578 189 C 1578 182.515, 1578.166 182.018, 1581 180 C 1583.447 178.257, 1584 177.152, 1584 174 C 1584 170.848, 1584.553 169.743, 1587 168 C 1589.447 166.257, 1590 165.152, 1590 162 C 1590 158.848, 1590.553 157.743, 1593 156 C 1595.447 154.257, 1596 153.152, 1596 150 C 1596 146.848, 1596.553 145.743, 1599 144 C 1601.447 142.257, 1602 141.152, 1602 138 C 1602 134.848, 1602.553 133.743, 1605 132 C 1607.823 129.990, 1607.999 129.469, 1607.991 123.182 C 1607.983 116.991, 1608.201 116.316, 1610.959 114 L 1613.935 111.500 1614.094 86.858 C 1614.181 73.305, 1613.944 61.718, 1613.567 61.108 C 1612.252 58.980, 1609.065 59.974, 1607.500 63 M 2136 63 C 2134.305 65.381, 2133.122 66, 2130.269 66 C 2127.172 66, 2125.888 66.832, 2121 72 C 2116.112 77.168, 2114.828 78, 2111.731 78 C 2108.878 78, 2107.695 78.619, 2106 81 C 2104.257 83.447, 2103.152 84, 2100 84 C 2096.848 84, 2095.743 84.553, 2094 87 C 2092.305 89.381, 2091.122 90, 2088.269 90 C 2085.172 90, 2083.888 90.832, 2079 96 C 2074.278 100.993, 2072.768 102, 2070 102 C 2067.232 102, 2065.722 103.007, 2061 108 C 2056.367 112.900, 2054.740 114, 2052.128 114 C 2047.167 114, 2028 133.380, 2028 138.397 C 2028 141.108, 2027.346 142.330, 2025 144 C 2022.553 145.743, 2022 146.848, 2022 150 C 2022 153.152, 2021.447 154.257, 2019 156 C 2016.166 158.018, 2016 158.515, 2016 165 C 2016 171.485, 2015.834 171.982, 2013 174 C 2010.553 175.743, 2010 176.848, 2010 180 C 2010 183.152, 2009.447 184.257, 2007 186 C 2004.553 187.743, 2004 188.848, 2004 192 C 2004 195.152, 2003.447 196.257, 2001 198 C 1998.166 200.018, 1998 200.515, 1998 207 C 1998 213.485, 1997.834 213.982, 1995 216 C 1992.553 217.743, 1992 218.848, 1992 222 C 1992 225.152, 1991.447 226.257, 1989 228 C 1986.553 229.743, 1986 230.848, 1986 234 C 1986 237.152, 1985.447 238.257, 1983 240 C 1980.553 241.743, 1980 242.848, 1980 246 C 1980 249.152, 1979.447 250.257, 1977 252 C 1974.553 253.743, 1974 254.848, 1974 258 C 1974 261.152, 1973.447 262.257, 1971 264 C 1968.651 265.673, 1968 266.891, 1968 269.616 C 1968 274.597, 1954.793 288, 1949.885 288 C 1947.257 288, 1945.643 289.090, 1941 294 L 1935.326 300 1928.731 300 C 1922.545 300, 1922.004 300.186, 1920 303 L 1917.864 306 1832.958 306 L 1748.051 306 1746.500 303 C 1745.581 301.224, 1744.154 300, 1743 300 C 1741.846 300, 1740.419 301.224, 1739.500 303 C 1738.178 305.557, 1737.371 306, 1734.042 306 C 1730.844 306, 1729.749 306.543, 1728 309 C 1726.257 311.447, 1725.152 312, 1722 312 C 1718.848 312, 1717.743 312.553, 1716 315 C 1714.257 317.447, 1713.152 318, 1710 318 C 1706.848 318, 1705.743 318.553, 1704 321 C 1702.305 323.381, 1701.122 324, 1698.269 324 C 1695.172 324, 1693.888 324.832, 1689 330 C 1684.112 335.168, 1682.828 336, 1679.731 336 C 1676.878 336, 1675.695 336.619, 1674 339 C 1672.257 341.447, 1671.152 342, 1668 342 C 1664.848 342, 1663.743 342.553, 1662 345 C 1660.305 347.381, 1659.122 348, 1656.269 348 C 1653.172 348, 1651.888 348.832, 1647 354 C 1642.112 359.168, 1640.828 360, 1637.731 360 C 1634.878 360, 1633.695 360.619, 1632 363 C 1630.250 365.457, 1629.157 366, 1625.955 366 C 1622.957 366, 1621.688 366.547, 1620.509 368.346 C 1619.664 369.636, 1617.853 371.201, 1616.486 371.824 C 1613.380 373.240, 1613.242 376.524, 1616.222 378.119 C 1617.444 378.773, 1622.124 383.064, 1626.623 387.654 C 1634.257 395.444, 1635.076 396, 1638.926 396 C 1642.708 396, 1643.100 396.249, 1643.650 399 L 1644.250 402 1788 402 L 1931.750 402 1932.350 399 L 1932.950 396 1940.407 396 C 1947.551 396, 1947.953 395.874, 1950 393 C 1951.743 390.553, 1952.848 390, 1956 390 C 1959.152 390, 1960.257 389.447, 1962 387 C 1964.001 384.190, 1964.550 384, 1970.682 384 L 1977.228 384 1986 375 C 1993.355 367.453, 1995.277 366, 1997.900 366 C 2000.657 366, 2004.061 362.968, 2026.515 340.515 C 2049.969 317.060, 2052 314.754, 2052 311.583 C 2052 308.895, 2052.660 307.666, 2055 306 C 2057.447 304.257, 2058 303.152, 2058 300 C 2058 296.848, 2058.553 295.743, 2061 294 C 2063.447 292.257, 2064 291.152, 2064 288 C 2064 284.848, 2064.553 283.743, 2067 282 C 2069.447 280.257, 2070 279.152, 2070 276 C 2070 272.848, 2070.553 271.743, 2073 270 C 2075.447 268.257, 2076 267.152, 2076 264 C 2076 260.848, 2076.553 259.743, 2079 258 C 2081.447 256.257, 2082 255.152, 2082 252 C 2082 248.848, 2082.553 247.743, 2085 246 C 2087.834 243.982, 2088 243.485, 2088 237 C 2088 230.515, 2088.166 230.018, 2091 228 C 2093.447 226.257, 2094 225.152, 2094 222 C 2094 218.848, 2094.553 217.743, 2097 216 C 2099.447 214.257, 2100 213.152, 2100 210 C 2100 206.848, 2100.553 205.743, 2103 204 C 2105.447 202.257, 2106 201.152, 2106 198 C 2106 194.848, 2106.553 193.743, 2109 192 C 2111.447 190.257, 2112 189.152, 2112 186 C 2112 182.848, 2112.553 181.743, 2115 180 C 2117.447 178.257, 2118 177.152, 2118 174 C 2118 170.848, 2118.553 169.743, 2121 168 C 2123.834 165.982, 2124 165.485, 2124 159 C 2124 152.515, 2124.166 152.018, 2127 150 C 2129.447 148.257, 2130 147.152, 2130 144 C 2130 140.848, 2130.553 139.743, 2133 138 C 2135.447 136.257, 2136 135.152, 2136 132 C 2136 128.848, 2136.553 127.743, 2139 126 C 2141.447 124.257, 2142 123.152, 2142 120 C 2142 116.848, 2142.553 115.743, 2145 114 L 2148 111.864 2148 87.132 C 2148 59.895, 2148.024 60, 2141.868 60 C 2138.863 60, 2137.720 60.584, 2136 63" stroke="none" fill="#0A0A0A" fill-rule="evenodd"/>
</svg>