<svg xmlns="http://www.w3.org/2000/svg" viewBox="-12 -14 431.891900257844 236.8174725041509">
  <g transform="skewX(-8) translate(33.28252525784401,0)">
    <path d="M34.45 151.25Q5 151.25 5 109.06L5 49.77Q5 11.25 38.75 11.25Q52.66 11.25 60.08 16.84Q67.50 22.42 70.31 33.13Q73.13 43.83 73.13 59.22L46.25 59.22L46.25 47.03Q46.25 42.58 45.04 39.57Q43.83 36.56 40 36.56Q35.23 36.56 33.71 39.77Q32.19 42.97 32.19 46.80L32.19 113.44Q32.19 118.98 33.63 122.46Q35.08 125.94 39.30 125.94Q43.67 125.94 45.12 122.46Q46.56 118.98 46.56 113.28L46.56 93.67L39.22 93.67L39.22 69.92L72.81 69.92L72.81 150L61.80 150L57.11 138.44Q49.92 151.25 34.45 151.25" fill="#FFFFFF"/>
    <path d="M116.48 151.25Q100 151.25 91.29 141.29Q82.58 131.33 82.58 112.50L82.58 47.19Q82.58 29.53 91.21 20.39Q99.84 11.25 116.48 11.25Q133.13 11.25 141.76 20.39Q150.39 29.53 150.39 47.19L150.39 112.50Q150.39 131.33 141.68 141.29Q132.97 151.25 116.48 151.25M116.72 125.94Q122.97 125.94 122.97 113.83L122.97 46.72Q122.97 36.56 116.88 36.56Q110 36.56 110 46.95L110 113.98Q110 120.39 111.56 123.16Q113.13 125.94 116.72 125.94M194.30 151.25Q177.81 151.25 169.10 141.29Q160.39 131.33 160.39 112.50L160.39 47.19Q160.39 29.53 169.02 20.39Q177.66 11.25 194.30 11.25Q210.94 11.25 219.57 20.39Q228.20 29.53 228.20 47.19L228.20 112.50Q228.20 131.33 219.49 141.29Q210.78 151.25 194.30 151.25M194.53 125.94Q200.78 125.94 200.78 113.83L200.78 46.72Q200.78 36.56 194.69 36.56Q187.81 36.56 187.81 46.95L187.81 113.98Q187.81 120.39 189.38 123.16Q190.94 125.94 194.53 125.94M272.11 151.25Q255.63 151.25 246.91 141.29Q238.20 131.33 238.20 112.50L238.20 47.19Q238.20 29.53 246.84 20.39Q255.47 11.25 272.11 11.25Q288.75 11.25 297.38 20.39Q306.02 29.53 306.02 47.19L306.02 112.50Q306.02 131.33 297.30 141.29Q288.59 151.25 272.11 151.25M272.34 125.94Q278.59 125.94 278.59 113.83L278.59 46.72Q278.59 36.56 272.50 36.56Q265.63 36.56 265.63 46.95L265.63 113.98Q265.63 120.39 267.19 123.16Q268.75 125.94 272.34 125.94" fill="#C1121F"/>
    <path d="M372.89 150L317.11 150L317.11 12.50L344.61 12.50L344.61 126.56L372.89 126.56" fill="#FFFFFF"/>
    <g transform="translate(3.746093749999943,0)"><path d="M6.47 206.07L2.55 206.07L2.55 190.24L0.22 190.24L0.22 186.48L8.79 186.48L8.79 190.24L6.47 190.24 M23.17 206.07L19.27 206.07L19.27 186.48L23.17 186.48L23.17 193.48L25.01 193.48L25.01 186.48L28.91 186.48L28.91 206.07L25.01 206.07L25.01 197.19L23.17 197.19 M48.12 206.07L40.03 206.07L40.03 186.48L47.87 186.48L47.87 190.26L44.02 190.26L44.02 194.08L47.71 194.08L47.71 197.76L44.02 197.76L44.02 202.25L48.12 202.25 M78.18 206.25Q75.50 206.25 74.31 204.91Q73.13 203.57 73.13 200.66L73.13 198.74L77 198.74L77 201.19Q77 201.87 77.21 202.26Q77.41 202.64 77.93 202.64Q78.46 202.64 78.67 202.33Q78.87 202.02 78.87 201.30Q78.87 200.40 78.69 199.80Q78.52 199.19 78.08 198.64Q77.64 198.09 76.86 197.35L75.10 195.68Q73.13 193.82 73.13 191.43Q73.13 188.93 74.29 187.61Q75.45 186.30 77.66 186.30Q80.35 186.30 81.48 187.74Q82.61 189.17 82.61 192.10L78.63 192.10L78.63 190.75Q78.63 190.35 78.40 190.13Q78.17 189.91 77.78 189.91Q77.31 189.91 77.10 190.17Q76.88 190.43 76.88 190.84Q76.88 191.25 77.10 191.73Q77.32 192.21 77.98 192.83L80.24 195Q80.92 195.65 81.49 196.37Q82.05 197.09 82.40 198.04Q82.74 198.99 82.74 200.36Q82.74 203.12 81.73 204.68Q80.71 206.25 78.18 206.25 M98.11 206.25Q95.76 206.25 94.52 204.83Q93.28 203.41 93.28 200.73L93.28 191.42Q93.28 188.90 94.51 187.60Q95.74 186.30 98.11 186.30Q100.48 186.30 101.71 187.60Q102.94 188.90 102.94 191.42L102.94 200.73Q102.94 203.41 101.70 204.83Q100.46 206.25 98.11 206.25M98.14 202.64Q99.03 202.64 99.03 200.91L99.03 191.35Q99.03 189.91 98.16 189.91Q97.18 189.91 97.18 191.39L97.18 200.94Q97.18 201.85 97.41 202.24Q97.63 202.64 98.14 202.64 M118.43 206.25Q115.99 206.25 114.83 204.87Q113.67 203.50 113.67 200.83L113.67 186.48L117.48 186.48L117.48 200.67Q117.48 201.16 117.53 201.61Q117.59 202.06 117.79 202.35Q117.99 202.64 118.43 202.64Q118.89 202.64 119.09 202.36Q119.29 202.07 119.34 201.62Q119.39 201.16 119.39 200.67L119.39 186.48L123.20 186.48L123.20 200.83Q123.20 203.50 122.04 204.87Q120.88 206.25 118.43 206.25 M137.92 206.07L134.09 206.07L134.09 186.48L138.12 186.48L139.92 195.86L139.92 186.48L143.70 186.48L143.70 206.07L139.88 206.07L137.92 196.27 M160.08 206.07L154.83 206.07L154.83 186.48L160.21 186.48Q162.33 186.48 163.40 187.65Q164.47 188.83 164.47 191.09L164.47 200.26Q164.47 203.04 163.49 204.55Q162.52 206.07 160.08 206.07M158.77 189.91L158.77 202.61L159.45 202.61Q160.53 202.61 160.53 201.56L160.53 191.45Q160.53 190.47 160.26 190.19Q160 189.91 159.20 189.91 M194.86 206.25Q192.51 206.25 191.27 204.83Q190.03 203.41 190.03 200.73L190.03 191.42Q190.03 188.90 191.26 187.60Q192.49 186.30 194.86 186.30Q197.23 186.30 198.46 187.60Q199.69 188.90 199.69 191.42L199.69 200.73Q199.69 203.41 198.45 204.83Q197.21 206.25 194.86 206.25M194.89 202.64Q195.78 202.64 195.78 200.91L195.78 191.35Q195.78 189.91 194.91 189.91Q193.93 189.91 193.93 191.39L193.93 200.94Q193.93 201.85 194.16 202.24Q194.38 202.64 194.89 202.64 M214.59 206.07L210.65 206.07L210.65 186.48L218.49 186.48L218.49 190.30L214.59 190.30L214.59 193.41L218.29 193.41L218.29 197.19L214.59 197.19 M251.01 206.07L245.67 206.07L243.25 186.47L246.98 186.47L248.42 199.80L249.70 186.47L253.42 186.47 M267.55 206.07L263.77 206.07L263.77 186.48L267.55 186.48 M283.06 206.25Q280.93 206.25 279.64 204.92Q278.34 203.60 278.34 201.22L278.34 192.18Q278.34 189.33 279.47 187.81Q280.60 186.30 283.15 186.30Q284.54 186.30 285.62 186.81Q286.71 187.32 287.33 188.34Q287.96 189.36 287.96 190.91L287.96 194.29L284.06 194.29L284.06 191.40Q284.06 190.52 283.84 190.21Q283.62 189.91 283.15 189.91Q282.60 189.91 282.41 190.30Q282.22 190.70 282.22 191.35L282.22 201.16Q282.22 201.97 282.46 202.31Q282.70 202.64 283.15 202.64Q283.65 202.64 283.86 202.23Q284.06 201.82 284.06 201.16L284.06 197.63L288 197.63L288 201.34Q288 203.92 286.70 205.08Q285.40 206.25 283.06 206.25 M304.29 206.07L300.37 206.07L300.37 190.24L298.04 190.24L298.04 186.48L306.61 186.48L306.61 190.24L304.29 190.24 M321.77 206.25Q319.42 206.25 318.18 204.83Q316.94 203.41 316.94 200.73L316.94 191.42Q316.94 188.90 318.17 187.60Q319.40 186.30 321.77 186.30Q324.14 186.30 325.37 187.60Q326.60 188.90 326.60 191.42L326.60 200.73Q326.60 203.41 325.36 204.83Q324.11 206.25 321.77 206.25M321.80 202.64Q322.69 202.64 322.69 200.91L322.69 191.35Q322.69 189.91 321.82 189.91Q320.84 189.91 320.84 191.39L320.84 200.94Q320.84 201.85 321.06 202.24Q321.29 202.64 321.80 202.64 M341.53 206.07L337.56 206.07L337.56 186.48L343.57 186.48Q345.08 186.48 345.84 187.16Q346.61 187.85 346.87 189.08Q347.14 190.31 347.14 191.97Q347.14 193.57 346.73 194.53Q346.32 195.48 345.20 195.85Q346.12 196.04 346.50 196.77Q346.87 197.50 346.87 198.66L346.87 206.07L343.01 206.07L343.01 198.40Q343.01 197.54 342.66 197.34Q342.30 197.13 341.53 197.13L341.53 206.07M341.55 190.11L341.55 193.74L342.49 193.74Q343.31 193.74 343.31 191.97Q343.31 190.82 343.13 190.46Q342.95 190.11 342.46 190.11 M363.88 206.07L360.18 206.07L360.18 199.62L357.06 186.48L360.94 186.48L362.03 193.11L363.12 186.48L366.99 186.48L363.88 199.62" fill="#C9A227"/></g>
  </g>
</svg>