<svg xmlns="http://www.w3.org/2000/svg" viewBox="-90 -15 413.4375 160">
  <defs>
    <mask id="cut">
      <rect x="-90" y="-15" width="413.4375" height="160" fill="white"/>
      <path d="M-80,97.3 L313.4375,77.3 L313.4375,48.3 L-80,68.3 z" fill="black"/>
    </mask>
  </defs>
  <g transform="skewX(-8)">
    <path d="M38.91 131.25Q22.42 131.25 13.71 121.29Q5 111.33 5 92.50L5 27.19Q5 9.53 13.63 0.39Q22.27-8.75 38.91-8.75Q55.55-8.75 64.18 0.39Q72.81 9.53 72.81 27.19L72.81 92.50Q72.81 111.33 64.10 121.29Q55.39 131.25 38.91 131.25M39.14 105.94Q45.39 105.94 45.39 93.83L45.39 26.72Q45.39 16.56 39.30 16.56Q32.42 16.56 32.42 26.95L32.42 93.98Q32.42 100.39 33.98 103.16Q35.55 105.94 39.14 105.94M116.72 131.25Q100.23 131.25 91.52 121.29Q82.81 111.33 82.81 92.50L82.81 27.19Q82.81 9.53 91.45 0.39Q100.08-8.75 116.72-8.75Q133.36-8.75 141.99 0.39Q150.63 9.53 150.63 27.19L150.63 92.50Q150.63 111.33 141.91 121.29Q133.20 131.25 116.72 131.25M116.95 105.94Q123.20 105.94 123.20 93.83L123.20 26.72Q123.20 16.56 117.11 16.56Q110.23 16.56 110.23 26.95L110.23 93.98Q110.23 100.39 111.80 103.16Q113.36 105.94 116.95 105.94M194.53 131.25Q178.05 131.25 169.34 121.29Q160.63 111.33 160.63 92.50L160.63 27.19Q160.63 9.53 169.26 0.39Q177.89-8.75 194.53-8.75Q211.17-8.75 219.80 0.39Q228.44 9.53 228.44 27.19L228.44 92.50Q228.44 111.33 219.73 121.29Q211.02 131.25 194.53 131.25M194.77 105.94Q201.02 105.94 201.02 93.83L201.02 26.72Q201.02 16.56 194.92 16.56Q188.05 16.56 188.05 26.95L188.05 93.98Q188.05 100.39 189.61 103.16Q191.17 105.94 194.77 105.94" fill="#C9A227" mask="url(#cut)"/>
    <path d="M-60,82.8 L-14,76.3 L247.4375,56.3 L293.4375,62.8 L247.4375,69.3 L-14,89.3 z" fill="#C9A227"/>
  </g>
</svg>