<svg xmlns="http://www.w3.org/2000/svg" viewBox="-12 -14 793.9840085934544 190">
  <g transform="skewX(-8) translate(26.702758593454377,0)">
    <path d="M33.13 150L6.09 150L6.09 12.50L42.42 12.50Q53.83 12.50 60.51 17.58Q67.19 22.66 70.08 32.03Q72.97 41.41 72.97 54.38Q72.97 66.88 70.55 76.13Q68.13 85.39 61.91 90.47Q55.70 95.55 44.30 95.55L33.13 95.55L33.13 150M33.13 37.58L33.13 70.86L34.69 70.86Q42.34 70.86 44.06 66.56Q45.78 62.27 45.78 53.91Q45.78 46.09 44.10 41.84Q42.42 37.58 36.17 37.58L33.13 37.58M114.45 151.25Q97.97 151.25 89.26 141.29Q80.55 131.33 80.55 112.50L80.55 47.19Q80.55 29.53 89.18 20.39Q97.81 11.25 114.45 11.25Q131.09 11.25 139.73 20.39Q148.36 29.53 148.36 47.19L148.36 112.50Q148.36 131.33 139.65 141.29Q130.94 151.25 114.45 151.25M114.69 125.94Q120.94 125.94 120.94 113.83L120.94 46.72Q120.94 36.56 114.84 36.56Q107.97 36.56 107.97 46.95L107.97 113.98Q107.97 120.39 109.53 123.16Q111.09 125.94 114.69 125.94M187.27 150L159.45 150L159.45 12.50L201.64 12.50Q212.19 12.50 217.58 17.30Q222.97 22.11 224.80 30.74Q226.64 39.38 226.64 51.02Q226.64 62.27 223.79 68.98Q220.94 75.70 213.05 78.28Q219.53 79.61 222.15 84.73Q224.77 89.84 224.77 97.97L224.77 150L197.66 150L197.66 96.17Q197.66 90.16 195.20 88.71Q192.73 87.27 187.27 87.27L187.27 150M187.42 37.97L187.42 63.44L194.06 63.44Q199.77 63.44 199.77 51.02Q199.77 42.97 198.52 40.47Q197.27 37.97 193.83 37.97L187.42 37.97M275 150L247.50 150L247.50 38.91L231.17 38.91L231.17 12.50L291.33 12.50L291.33 38.91L275 38.91L275 150M330.78 151.25Q313.59 151.25 305.47 141.60Q297.34 131.95 297.34 113.20L297.34 12.50L324.06 12.50L324.06 112.11Q324.06 115.55 324.45 118.71Q324.84 121.88 326.25 123.91Q327.66 125.94 330.78 125.94Q333.98 125.94 335.39 123.95Q336.80 121.95 337.15 118.75Q337.50 115.55 337.50 112.11L337.50 12.50L364.22 12.50L364.22 113.20Q364.22 131.95 356.09 141.60Q347.97 151.25 330.78 151.25M403.13 151.25Q373.67 151.25 373.67 109.06L373.67 49.77Q373.67 11.25 407.42 11.25Q421.33 11.25 428.75 16.84Q436.17 22.42 438.98 33.13Q441.80 43.83 441.80 59.22L414.92 59.22L414.92 47.03Q414.92 42.58 413.71 39.57Q412.50 36.56 408.67 36.56Q403.91 36.56 402.38 39.77Q400.86 42.97 400.86 46.80L400.86 113.44Q400.86 118.98 402.30 122.46Q403.75 125.94 407.97 125.94Q412.34 125.94 413.79 122.46Q415.23 118.98 415.23 113.28L415.23 93.67L407.89 93.67L407.89 69.92L441.48 69.92L441.48 150L430.47 150L425.78 138.44Q418.59 151.25 403.13 151.25" fill="#C9A227"/>
    <path d="M485.16 151.25Q468.67 151.25 459.96 141.29Q451.25 131.33 451.25 112.50L451.25 47.19Q451.25 29.53 459.88 20.39Q468.52 11.25 485.16 11.25Q501.80 11.25 510.43 20.39Q519.06 29.53 519.06 47.19L519.06 112.50Q519.06 131.33 510.35 141.29Q501.64 151.25 485.16 151.25M485.39 125.94Q491.64 125.94 491.64 113.83L491.64 46.72Q491.64 36.56 485.55 36.56Q478.67 36.56 478.67 46.95L478.67 113.98Q478.67 120.39 480.23 123.16Q481.80 125.94 485.39 125.94M562.97 151.25Q546.48 151.25 537.77 141.29Q529.06 131.33 529.06 112.50L529.06 47.19Q529.06 29.53 537.70 20.39Q546.33 11.25 562.97 11.25Q579.61 11.25 588.24 20.39Q596.88 29.53 596.88 47.19L596.88 112.50Q596.88 131.33 588.16 141.29Q579.45 151.25 562.97 151.25M563.20 125.94Q569.45 125.94 569.45 113.83L569.45 46.72Q569.45 36.56 563.36 36.56Q556.48 36.56 556.48 46.95L556.48 113.98Q556.48 120.39 558.05 123.16Q559.61 125.94 563.20 125.94M640.78 151.25Q624.30 151.25 615.59 141.29Q606.88 131.33 606.88 112.50L606.88 47.19Q606.88 29.53 615.51 20.39Q624.14 11.25 640.78 11.25Q657.42 11.25 666.05 20.39Q674.69 29.53 674.69 47.19L674.69 112.50Q674.69 131.33 665.98 141.29Q657.27 151.25 640.78 151.25M641.02 125.94Q647.27 125.94 647.27 113.83L647.27 46.72Q647.27 36.56 641.17 36.56Q634.30 36.56 634.30 46.95L634.30 113.98Q634.30 120.39 635.86 123.16Q637.42 125.94 641.02 125.94" fill="#C9A227"/>
    <path d="M741.56 150L685.78 150L685.78 12.50L713.28 12.50L713.28 126.56L741.56 126.56" fill="#C9A227"/>
    
  </g>
</svg>