<svg xmlns="http://www.w3.org/2000/svg" viewBox="-12 -14 802.4164586755978 250">
  <g transform="skewX(-8) translate(35.135208675597866,0)">
    <path d="M33.13 150L6.09 150L6.09 12.50L42.42 12.50Q53.83 12.50 60.51 17.58Q67.19 22.66 70.08 32.03Q72.97 41.41 72.97 54.38Q72.97 66.88 70.55 76.13Q68.13 85.39 61.91 90.47Q55.70 95.55 44.30 95.55L33.13 95.55L33.13 150M33.13 37.58L33.13 70.86L34.69 70.86Q42.34 70.86 44.06 66.56Q45.78 62.27 45.78 53.91Q45.78 46.09 44.10 41.84Q42.42 37.58 36.17 37.58L33.13 37.58M114.45 151.25Q97.97 151.25 89.26 141.29Q80.55 131.33 80.55 112.50L80.55 47.19Q80.55 29.53 89.18 20.39Q97.81 11.25 114.45 11.25Q131.09 11.25 139.73 20.39Q148.36 29.53 148.36 47.19L148.36 112.50Q148.36 131.33 139.65 141.29Q130.94 151.25 114.45 151.25M114.69 125.94Q120.94 125.94 120.94 113.83L120.94 46.72Q120.94 36.56 114.84 36.56Q107.97 36.56 107.97 46.95L107.97 113.98Q107.97 120.39 109.53 123.16Q111.09 125.94 114.69 125.94M187.27 150L159.45 150L159.45 12.50L201.64 12.50Q212.19 12.50 217.58 17.30Q222.97 22.11 224.80 30.74Q226.64 39.38 226.64 51.02Q226.64 62.27 223.79 68.98Q220.94 75.70 213.05 78.28Q219.53 79.61 222.15 84.73Q224.77 89.84 224.77 97.97L224.77 150L197.66 150L197.66 96.17Q197.66 90.16 195.20 88.71Q192.73 87.27 187.27 87.27L187.27 150M187.42 37.97L187.42 63.44L194.06 63.44Q199.77 63.44 199.77 51.02Q199.77 42.97 198.52 40.47Q197.27 37.97 193.83 37.97L187.42 37.97M275 150L247.50 150L247.50 38.91L231.17 38.91L231.17 12.50L291.33 12.50L291.33 38.91L275 38.91L275 150M330.78 151.25Q313.59 151.25 305.47 141.60Q297.34 131.95 297.34 113.20L297.34 12.50L324.06 12.50L324.06 112.11Q324.06 115.55 324.45 118.71Q324.84 121.88 326.25 123.91Q327.66 125.94 330.78 125.94Q333.98 125.94 335.39 123.95Q336.80 121.95 337.15 118.75Q337.50 115.55 337.50 112.11L337.50 12.50L364.22 12.50L364.22 113.20Q364.22 131.95 356.09 141.60Q347.97 151.25 330.78 151.25M403.13 151.25Q373.67 151.25 373.67 109.06L373.67 49.77Q373.67 11.25 407.42 11.25Q421.33 11.25 428.75 16.84Q436.17 22.42 438.98 33.13Q441.80 43.83 441.80 59.22L414.92 59.22L414.92 47.03Q414.92 42.58 413.71 39.57Q412.50 36.56 408.67 36.56Q403.91 36.56 402.38 39.77Q400.86 42.97 400.86 46.80L400.86 113.44Q400.86 118.98 402.30 122.46Q403.75 125.94 407.97 125.94Q412.34 125.94 413.79 122.46Q415.23 118.98 415.23 113.28L415.23 93.67L407.89 93.67L407.89 69.92L441.48 69.92L441.48 150L430.47 150L425.78 138.44Q418.59 151.25 403.13 151.25" fill="#FFFFFF"/>
    <path d="M485.16 151.25Q468.67 151.25 459.96 141.29Q451.25 131.33 451.25 112.50L451.25 47.19Q451.25 29.53 459.88 20.39Q468.52 11.25 485.16 11.25Q501.80 11.25 510.43 20.39Q519.06 29.53 519.06 47.19L519.06 112.50Q519.06 131.33 510.35 141.29Q501.64 151.25 485.16 151.25M485.39 125.94Q491.64 125.94 491.64 113.83L491.64 46.72Q491.64 36.56 485.55 36.56Q478.67 36.56 478.67 46.95L478.67 113.98Q478.67 120.39 480.23 123.16Q481.80 125.94 485.39 125.94M562.97 151.25Q546.48 151.25 537.77 141.29Q529.06 131.33 529.06 112.50L529.06 47.19Q529.06 29.53 537.70 20.39Q546.33 11.25 562.97 11.25Q579.61 11.25 588.24 20.39Q596.88 29.53 596.88 47.19L596.88 112.50Q596.88 131.33 588.16 141.29Q579.45 151.25 562.97 151.25M563.20 125.94Q569.45 125.94 569.45 113.83L569.45 46.72Q569.45 36.56 563.36 36.56Q556.48 36.56 556.48 46.95L556.48 113.98Q556.48 120.39 558.05 123.16Q559.61 125.94 563.20 125.94M640.78 151.25Q624.30 151.25 615.59 141.29Q606.88 131.33 606.88 112.50L606.88 47.19Q606.88 29.53 615.51 20.39Q624.14 11.25 640.78 11.25Q657.42 11.25 666.05 20.39Q674.69 29.53 674.69 47.19L674.69 112.50Q674.69 131.33 665.98 141.29Q657.27 151.25 640.78 151.25M641.02 125.94Q647.27 125.94 647.27 113.83L647.27 46.72Q647.27 36.56 641.17 36.56Q634.30 36.56 634.30 46.95L634.30 113.98Q634.30 120.39 635.86 123.16Q637.42 125.94 641.02 125.94" fill="#FFFFFF"/>
    <path d="M741.56 150L685.78 150L685.78 12.50L713.28 12.50L713.28 126.56L741.56 126.56" fill="#FFFFFF"/>
    <g transform="translate(97.85107421875,0)"><path d="M9.65 212L3.80 212L3.80 188.39L0.33 188.39L0.33 182.78L13.12 182.78L13.12 188.39L9.65 188.39 M34.55 212L28.74 212L28.74 182.78L34.55 182.78L34.55 193.22L37.31 193.22L37.31 182.78L43.12 182.78L43.12 212L37.31 212L37.31 198.75L34.55 198.75 M71.78 212L59.71 212L59.71 182.78L71.40 182.78L71.40 188.43L65.65 188.43L65.65 194.12L71.16 194.12L71.16 199.62L65.65 199.62L65.65 206.31L71.78 206.31 M116.61 212.27Q112.61 212.27 110.84 210.27Q109.08 208.28 109.08 203.93L109.08 201.08L114.85 201.08L114.85 204.73Q114.85 205.74 115.16 206.31Q115.47 206.89 116.23 206.89Q117.03 206.89 117.33 206.42Q117.64 205.96 117.64 204.89Q117.64 203.55 117.38 202.65Q117.11 201.74 116.45 200.92Q115.80 200.10 114.64 199L112.01 196.51Q109.08 193.74 109.08 190.17Q109.08 186.43 110.81 184.47Q112.54 182.52 115.83 182.52Q119.85 182.52 121.53 184.66Q123.22 186.80 123.22 191.17L117.28 191.17L117.28 189.16Q117.28 188.56 116.94 188.23Q116.60 187.89 116.01 187.89Q115.32 187.89 114.99 188.28Q114.67 188.67 114.67 189.29Q114.67 189.90 115 190.62Q115.33 191.33 116.31 192.26L119.68 195.50Q120.70 196.46 121.54 197.53Q122.39 198.60 122.90 200.02Q123.42 201.44 123.42 203.48Q123.42 207.60 121.90 209.93Q120.38 212.27 116.61 212.27 M146.33 212.27Q142.83 212.27 140.98 210.15Q139.13 208.03 139.13 204.03L139.13 190.15Q139.13 186.40 140.96 184.46Q142.80 182.52 146.33 182.52Q149.87 182.52 151.70 184.46Q153.54 186.40 153.54 190.15L153.54 204.03Q153.54 208.03 151.69 210.15Q149.84 212.27 146.33 212.27M146.38 206.89Q147.71 206.89 147.71 204.31L147.71 190.05Q147.71 187.89 146.42 187.89Q144.96 187.89 144.96 190.10L144.96 204.35Q144.96 205.71 145.29 206.30Q145.62 206.89 146.38 206.89 M176.65 212.27Q173 212.27 171.27 210.22Q169.55 208.17 169.55 204.18L169.55 182.78L175.23 182.78L175.23 203.95Q175.23 204.68 175.31 205.35Q175.39 206.02 175.69 206.46Q175.99 206.89 176.65 206.89Q177.33 206.89 177.63 206.46Q177.93 206.04 178.01 205.36Q178.08 204.68 178.08 203.95L178.08 182.78L183.76 182.78L183.76 204.18Q183.76 208.17 182.03 210.22Q180.31 212.27 176.65 212.27 M205.71 212L200 212L200 182.78L206.01 182.78L208.70 196.78L208.70 182.78L214.34 182.78L214.34 212L208.63 212L205.71 197.39 M238.77 212L230.93 212L230.93 182.78L238.97 182.78Q242.12 182.78 243.72 184.53Q245.31 186.28 245.31 189.65L245.31 203.33Q245.31 207.48 243.86 209.74Q242.41 212 238.77 212M236.81 187.89L236.81 206.84L237.82 206.84Q239.43 206.84 239.43 205.28L239.43 190.20Q239.43 188.74 239.04 188.32Q238.65 187.89 237.46 187.89 M290.64 212.27Q287.14 212.27 285.29 210.15Q283.44 208.03 283.44 204.03L283.44 190.15Q283.44 186.40 285.27 184.46Q287.11 182.52 290.64 182.52Q294.18 182.52 296.01 184.46Q297.85 186.40 297.85 190.15L297.85 204.03Q297.85 208.03 296 210.15Q294.15 212.27 290.64 212.27M290.69 206.89Q292.02 206.89 292.02 204.31L292.02 190.05Q292.02 187.89 290.73 187.89Q289.26 187.89 289.26 190.10L289.26 204.35Q289.26 205.71 289.60 206.30Q289.93 206.89 290.69 206.89 M320.08 212L314.21 212L314.21 182.78L325.89 182.78L325.89 188.48L320.08 188.48L320.08 193.12L325.59 193.12L325.59 198.75L320.08 198.75 M374.40 212L366.43 212L362.82 182.76L368.39 182.76L370.53 202.65L372.44 182.76L378 182.76 M399.07 212L393.43 212L393.43 182.78L399.07 182.78 M422.20 212.27Q419.03 212.27 417.10 210.29Q415.16 208.31 415.16 204.76L415.16 191.28Q415.16 187.03 416.85 184.77Q418.53 182.52 422.33 182.52Q424.41 182.52 426.03 183.28Q427.65 184.04 428.58 185.56Q429.51 187.08 429.51 189.39L429.51 194.44L423.70 194.44L423.70 190.12Q423.70 188.81 423.36 188.35Q423.03 187.89 422.33 187.89Q421.52 187.89 421.24 188.48Q420.96 189.07 420.96 190.05L420.96 204.68Q420.96 205.89 421.31 206.39Q421.67 206.89 422.33 206.89Q423.08 206.89 423.39 206.27Q423.70 205.66 423.70 204.68L423.70 199.42L429.57 199.42L429.57 204.94Q429.57 208.80 427.63 210.53Q425.69 212.27 422.20 212.27 M453.87 212L448.02 212L448.02 188.39L444.55 188.39L444.55 182.78L457.33 182.78L457.33 188.39L453.87 188.39 M479.93 212.27Q476.43 212.27 474.58 210.15Q472.73 208.03 472.73 204.03L472.73 190.15Q472.73 186.40 474.56 184.46Q476.40 182.52 479.93 182.52Q483.47 182.52 485.31 184.46Q487.14 186.40 487.14 190.15L487.14 204.03Q487.14 208.03 485.29 210.15Q483.44 212.27 479.93 212.27M479.98 206.89Q481.31 206.89 481.31 204.31L481.31 190.05Q481.31 187.89 480.02 187.89Q478.56 187.89 478.56 190.10L478.56 204.35Q478.56 205.71 478.89 206.30Q479.22 206.89 479.98 206.89 M509.41 212L503.50 212L503.50 182.78L512.46 182.78Q514.70 182.78 515.85 183.80Q516.99 184.82 517.38 186.66Q517.77 188.49 517.77 190.97Q517.77 193.36 517.17 194.78Q516.56 196.21 514.89 196.76Q516.26 197.04 516.82 198.13Q517.38 199.22 517.38 200.94L517.38 212L511.62 212L511.62 200.56Q511.62 199.28 511.09 198.98Q510.57 198.67 509.41 198.67L509.41 212M509.44 188.19L509.44 193.61L510.85 193.61Q512.06 193.61 512.06 190.97Q512.06 189.26 511.80 188.72Q511.53 188.19 510.80 188.19 M542.75 212L537.24 212L537.24 202.39L532.57 182.78L538.37 182.78L539.99 192.68L541.62 182.78L547.40 182.78L542.75 202.39" fill="#C9A227"/></g>
  </g>
</svg>