<svg xmlns="http://www.w3.org/2000/svg" viewBox="0 0 800 1000"><rect width="800" height="1000" fill="#EFE9E4"></rect>
  <g transform="rotate(-8 400 450)">
    <rect x="130" y="320" width="540" height="260" rx="8" fill="#C1121F"></rect>
    <rect x="140" y="330" width="65" height="240" fill="#C1121F"></rect><rect x="205" y="330" width="65" height="240" fill="#0B3D2E"></rect><rect x="270" y="330" width="65" height="240" fill="#C1121F"></rect><rect x="335" y="330" width="65" height="240" fill="#0B3D2E"></rect><rect x="400" y="330" width="65" height="240" fill="#C1121F"></rect><rect x="465" y="330" width="65" height="240" fill="#0B3D2E"></rect><rect x="530" y="330" width="65" height="240" fill="#C1121F"></rect><rect x="595" y="330" width="65" height="240" fill="#0B3D2E"></rect>
    <text x="400" y="470" text-anchor="middle" font-family="Arial Narrow, Impact, sans-serif" font-weight="bold" font-size="58" letter-spacing="4" fill="#C9A227">PORTUGOOOL</text>
    <rect x="145" y="580" width="10" height="46" fill="#C9A227"></rect><rect x="145" y="274" width="10" height="46" fill="#C9A227"></rect><rect x="223" y="580" width="10" height="46" fill="#C9A227"></rect><rect x="223" y="274" width="10" height="46" fill="#C9A227"></rect><rect x="301" y="580" width="10" height="46" fill="#C9A227"></rect><rect x="301" y="274" width="10" height="46" fill="#C9A227"></rect><rect x="379" y="580" width="10" height="46" fill="#C9A227"></rect><rect x="379" y="274" width="10" height="46" fill="#C9A227"></rect><rect x="457" y="580" width="10" height="46" fill="#C9A227"></rect><rect x="457" y="274" width="10" height="46" fill="#C9A227"></rect><rect x="535" y="580" width="10" height="46" fill="#C9A227"></rect><rect x="535" y="274" width="10" height="46" fill="#C9A227"></rect><rect x="613" y="580" width="10" height="46" fill="#C9A227"></rect><rect x="613" y="274" width="10" height="46" fill="#C9A227"></rect>
  </g><text x="400" y="950" text-anchor="middle" font-family="Arial, sans-serif" font-size="24" letter-spacing="4" fill="#0A0A0A" opacity="0.35">PORTUGOOOL · PLACEHOLDER</text></svg>